<svg xmlns="http://www.w3.org/2000/svg" xmlns:xlink="http://www.w3.org/1999/xlink" width="1080" zoomAndPan="magnify" viewBox="0 0 810 809.999993" height="1080" preserveAspectRatio="xMidYMid meet" version="1.0"><defs><clipPath id="id1"><path d="M 145.761719 267.09375 L 663 267.09375 L 663 543 L 145.761719 543 Z M 145.761719 267.09375 " clip-rule="nonzero"/></clipPath></defs><g clip-path="url(#id1)"><path fill="#4a67af" d="M 644.425781 419.191406 C 637.191406 405.179688 627.132812 392.089844 614.949219 382.046875 C 602.339844 371.648438 587.402344 363.355469 571.125 360.621094 C 566.464844 359.839844 561.746094 359.453125 557.019531 359.4375 C 547.285156 333.835938 529.066406 312.074219 507.097656 295.847656 C 480.828125 276.445312 448.625 267.117188 416.121094 267.503906 C 380.972656 267.917969 346.519531 278.96875 315.992188 296.027344 C 285.078125 313.300781 258.269531 337.167969 235.15625 363.859375 C 212.46875 390.0625 192.9375 418.804688 174.34375 448.007812 C 173.292969 435.042969 172.539062 422.054688 172.113281 409.050781 C 171.890625 402.226562 171.757812 395.394531 171.703125 388.566406 C 171.679688 385.222656 170.277344 381.765625 167.910156 379.394531 C 165.664062 377.144531 161.976562 375.449219 158.746094 375.59375 C 155.398438 375.746094 151.921875 376.847656 149.585938 379.394531 C 147.269531 381.921875 145.765625 385.0625 145.789062 388.566406 C 145.972656 412.640625 147.21875 436.707031 149.546875 460.671875 C 150.144531 466.851562 150.828125 473.023438 151.570312 479.1875 C 151.316406 479.753906 151.089844 480.328125 150.921875 480.933594 C 150.070312 484.039062 150.453125 488.175781 152.230469 490.929688 C 154.011719 493.699219 156.667969 496.136719 159.972656 496.890625 C 163.300781 497.648438 166.992188 497.46875 169.957031 495.582031 C 183.753906 486.796875 198.113281 478.902344 212.929688 471.976562 C 216.6875 470.222656 220.480469 468.539062 224.292969 466.902344 C 239.703125 460.480469 255.519531 455.066406 271.636719 450.722656 C 274.773438 449.878906 277.746094 447.5625 279.382812 444.761719 C 281.007812 441.980469 281.695312 437.882812 280.6875 434.765625 C 279.671875 431.628906 277.730469 428.601562 274.730469 427.015625 C 271.636719 425.375 268.191406 424.777344 264.75 425.707031 C 244.671875 431.113281 224.988281 438.171875 205.992188 446.722656 C 215.683594 431.886719 225.707031 417.273438 236.433594 403.15625 C 237.019531 402.382812 237.625 401.621094 238.199219 400.839844 C 235.953125 403.882812 238.234375 400.800781 238.722656 400.175781 C 240.085938 398.429688 241.460938 396.691406 242.851562 394.960938 C 245.449219 391.722656 248.09375 388.519531 250.78125 385.351562 C 256.148438 379.03125 261.695312 372.859375 267.453125 366.886719 C 273.214844 360.914062 279.183594 355.136719 285.375 349.605469 C 288.386719 346.917969 291.453125 344.285156 294.574219 341.726562 C 296.046875 340.527344 297.535156 339.351562 299.023438 338.171875 C 299.160156 338.066406 299.296875 337.964844 299.433594 337.859375 C 300.277344 337.21875 301.125 336.582031 301.976562 335.953125 C 314.894531 326.390625 328.699219 318.003906 343.222656 311.125 C 345.019531 310.277344 346.824219 309.449219 348.640625 308.648438 C 349.210938 308.394531 349.785156 308.148438 350.359375 307.902344 C 350.824219 307.714844 351.285156 307.511719 351.75 307.324219 C 355.414062 305.839844 359.117188 304.449219 362.855469 303.171875 C 370.410156 300.582031 378.117188 298.429688 385.929688 296.777344 C 389.75 295.96875 393.589844 295.304688 397.453125 294.726562 C 397.46875 294.722656 397.476562 294.722656 397.492188 294.71875 C 398.394531 294.609375 399.300781 294.503906 400.203125 294.40625 C 402.265625 294.183594 404.332031 293.996094 406.40625 293.847656 C 414.171875 293.296875 421.980469 293.285156 429.746094 293.867188 C 431.5625 294.003906 433.378906 294.171875 435.191406 294.371094 C 435.859375 294.445312 436.523438 294.53125 437.191406 294.613281 C 437.707031 294.691406 438.226562 294.769531 438.742188 294.847656 C 442.328125 295.417969 445.898438 296.113281 449.425781 296.972656 C 452.761719 297.789062 456.0625 298.742188 459.320312 299.828125 C 460.953125 300.371094 462.574219 300.945312 464.183594 301.554688 C 464.9375 301.835938 465.683594 302.128906 466.429688 302.425781 C 466.859375 302.597656 467.28125 302.773438 467.707031 302.945312 C 469.371094 303.613281 466.820312 302.472656 466.519531 302.4375 C 467.980469 302.605469 469.90625 303.9375 471.234375 304.570312 C 472.898438 305.363281 474.546875 306.1875 476.175781 307.046875 C 479.234375 308.65625 482.230469 310.382812 485.160156 312.214844 C 488.089844 314.050781 490.953125 315.996094 493.738281 318.042969 C 494.316406 318.46875 494.890625 318.902344 495.464844 319.332031 C 495.566406 319.417969 495.675781 319.507812 495.777344 319.589844 C 497.121094 320.667969 498.449219 321.773438 499.753906 322.902344 C 505.039062 327.46875 509.984375 332.433594 514.507812 337.753906 C 515.511719 338.933594 516.476562 340.136719 517.445312 341.335938 C 518.039062 342.125 518.625 342.921875 519.199219 343.722656 C 521.167969 346.476562 523.03125 349.3125 524.773438 352.21875 C 526.503906 355.105469 528.113281 358.066406 529.59375 361.089844 C 529.960938 361.84375 530.304688 362.613281 530.65625 363.375 C 513.53125 368.703125 498.207031 379.355469 488.332031 394.953125 C 479.730469 408.539062 475.734375 427.144531 481.996094 442.457031 C 486.160156 452.632812 493.324219 460.058594 503.734375 463.875 C 512.039062 466.917969 522.253906 466.273438 530.390625 463.007812 C 560.386719 450.972656 567.519531 415.628906 563.628906 385.664062 C 563.910156 385.683594 564.183594 385.679688 564.457031 385.675781 C 565.222656 385.808594 565.988281 385.949219 566.75 386.105469 C 570.136719 386.816406 573.472656 387.78125 576.726562 388.949219 C 577.25 389.136719 577.769531 389.339844 578.285156 389.539062 C 578.46875 389.589844 578.847656 389.722656 579.140625 389.859375 C 579.179688 389.875 579.214844 389.894531 579.253906 389.910156 C 579.605469 390.058594 579.957031 390.214844 580.3125 390.339844 C 580.074219 390.253906 579.867188 390.179688 579.671875 390.109375 C 581.179688 390.816406 582.683594 391.523438 584.160156 392.304688 C 587.246094 393.9375 590.230469 395.765625 593.097656 397.757812 C 593.769531 398.222656 594.433594 398.699219 595.09375 399.183594 C 595.140625 399.21875 595.1875 399.253906 595.234375 399.289062 C 596.53125 400.46875 597.984375 401.511719 599.300781 402.675781 C 601.945312 405.019531 604.464844 407.507812 606.855469 410.109375 C 607.976562 411.332031 609.066406 412.578125 610.128906 413.851562 C 610.703125 414.535156 611.261719 415.234375 611.824219 415.929688 C 611.921875 416.0625 612.011719 416.183594 612.066406 416.257812 C 616.316406 421.980469 620.03125 428.105469 623.167969 434.507812 C 623.921875 436.050781 624.617188 437.617188 625.332031 439.179688 C 625.332031 439.179688 625.332031 439.183594 625.332031 439.183594 C 625.746094 440.210938 626.144531 441.238281 626.53125 442.273438 C 628.050781 446.328125 629.375 450.453125 630.519531 454.628906 C 631.699219 458.9375 632.6875 463.300781 633.5 467.695312 C 633.871094 469.679688 634.203125 471.675781 634.503906 473.671875 C 634.550781 473.964844 634.589844 474.257812 634.632812 474.550781 C 634.742188 475.691406 634.917969 476.832031 635.039062 477.96875 C 635.980469 486.636719 636.355469 495.363281 636.328125 504.078125 C 636.300781 512.664062 635.875 521.238281 635.214844 529.796875 C 634.691406 536.578125 641.546875 543.066406 648.171875 542.769531 C 655.636719 542.433594 660.566406 537.0625 661.128906 529.796875 C 664.015625 492.402344 661.941406 453.117188 644.425781 419.191406 Z M 538.601562 404.335938 C 538.519531 406.035156 538.394531 407.730469 538.222656 409.425781 C 538.1875 409.769531 538.160156 410.121094 538.125 410.46875 C 538.113281 410.53125 538.105469 410.582031 538.09375 410.65625 C 537.984375 411.277344 537.890625 411.898438 537.78125 412.515625 C 537.117188 416.234375 536.191406 419.910156 534.917969 423.46875 C 534.691406 424.113281 534.367188 424.761719 534.140625 425.414062 C 534.0625 425.574219 533.988281 425.734375 533.910156 425.894531 C 533.042969 427.671875 532.066406 429.402344 530.972656 431.050781 C 530.628906 431.570312 530.199219 432.066406 529.839844 432.585938 C 529.6875 432.761719 529.535156 432.9375 529.378906 433.109375 C 528.796875 433.753906 528.191406 434.382812 527.566406 434.980469 C 527.238281 435.296875 526.90625 435.605469 526.5625 435.90625 C 526.148438 436.195312 525.519531 436.648438 525.300781 436.785156 C 524.523438 437.273438 523.726562 437.730469 522.910156 438.148438 C 522.820312 438.195312 522.652344 438.277344 522.453125 438.367188 C 521.96875 438.535156 520.945312 438.921875 520.585938 439.027344 C 519.820312 439.257812 519.050781 439.460938 518.265625 439.628906 C 518.128906 439.660156 517.972656 439.683594 517.8125 439.703125 C 517.980469 439.703125 518.152344 439.699219 518.351562 439.699219 C 518.164062 439.699219 517.972656 439.703125 517.78125 439.707031 C 516.757812 439.832031 515.574219 439.769531 516.707031 439.726562 C 515.707031 439.75 514.710938 439.773438 513.703125 439.746094 C 512.902344 439.574219 512.113281 439.363281 511.335938 439.105469 C 510.652344 438.71875 509.980469 438.335938 509.316406 437.921875 C 509.308594 437.914062 509.304688 437.910156 509.296875 437.902344 C 508.777344 437.429688 508.3125 436.910156 507.820312 436.410156 C 507.359375 435.6875 506.902344 434.96875 506.503906 434.203125 C 506.441406 434.082031 506.382812 433.957031 506.324219 433.832031 C 506.167969 433.402344 506.019531 432.96875 505.882812 432.53125 C 505.664062 431.800781 505.476562 431.058594 505.308594 430.316406 C 505.210938 429.875 505.140625 429.179688 505.097656 428.667969 C 505.117188 429.011719 505.144531 429.488281 505.175781 430.175781 C 505.101562 428.609375 504.933594 427.0625 504.953125 425.488281 C 504.964844 424.585938 505.007812 423.6875 505.078125 422.789062 C 505.089844 422.648438 505.101562 422.511719 505.117188 422.375 C 505.375 420.996094 505.644531 419.628906 506.019531 418.273438 C 506.429688 416.789062 506.8125 414.609375 507.707031 413.34375 C 507.699219 413.351562 506.273438 416.527344 507.144531 414.691406 C 507.277344 414.40625 507.40625 414.113281 507.539062 413.828125 C 507.851562 413.164062 508.175781 412.503906 508.515625 411.851562 C 509.292969 410.371094 510.136719 408.925781 511.046875 407.523438 C 511.441406 406.914062 511.855469 406.308594 512.273438 405.714844 C 512.515625 405.375 512.777344 405.050781 513.007812 404.703125 C 513.773438 403.566406 511.800781 406.332031 511.929688 406.089844 C 512.675781 404.722656 514.128906 403.4375 515.191406 402.308594 C 516.265625 401.167969 517.382812 400.074219 518.542969 399.023438 C 519.085938 398.53125 519.636719 398.046875 520.195312 397.574219 C 520.515625 397.304688 520.84375 397.046875 521.164062 396.773438 C 522.488281 395.65625 520.195312 397.472656 520.027344 397.636719 C 522.207031 395.527344 525.339844 393.914062 527.972656 392.453125 C 529.363281 391.679688 530.785156 390.953125 532.226562 390.277344 C 532.902344 389.960938 533.589844 389.667969 534.265625 389.355469 C 530.25 391.207031 533.476562 389.710938 534.441406 389.347656 C 535.582031 388.921875 536.738281 388.53125 537.902344 388.160156 C 537.945312 388.636719 538.007812 389.105469 538.132812 389.5 C 538.304688 391.074219 538.441406 392.65625 538.535156 394.238281 C 538.734375 397.597656 538.757812 400.972656 538.601562 404.335938 Z M 624.796875 437.878906 C 624.933594 438.140625 625.046875 438.433594 625.15625 438.726562 C 624.957031 438.261719 624.761719 437.8125 624.796875 437.878906 Z M 624.796875 437.878906 " fill-opacity="1" fill-rule="nonzero"/></g></svg>