<svg xmlns="http://www.w3.org/2000/svg" xmlns:xlink="http://www.w3.org/1999/xlink" width="1080" zoomAndPan="magnify" viewBox="0 0 810 809.999993" height="1080" preserveAspectRatio="xMidYMid meet" version="1.0"><defs><clipPath id="id1"><path d="M 92 310 L 718 310 L 718 501.925781 L 92 501.925781 Z M 92 310 " clip-rule="nonzero"/></clipPath></defs><g clip-path="url(#id1)"><path fill="#4a67af" d="M 656.460938 363.207031 C 649.207031 360.605469 642.472656 358.046875 635.605469 355.792969 C 628.742188 353.535156 623.269531 349.15625 618.011719 344.511719 C 614.273438 341.21875 613.058594 336.878906 614.796875 332.066406 C 615.925781 328.898438 617.140625 325.644531 618.75 322.695312 C 624.65625 311.9375 634.476562 308.425781 646.207031 311.632812 C 661.5 315.796875 666.191406 321.785156 668.84375 340.523438 C 669.410156 344.46875 668.929688 348.546875 668.929688 353.230469 C 671.582031 352.886719 674.316406 352.84375 676.925781 352.191406 C 687.132812 349.71875 696.824219 346.292969 704.949219 339.089844 C 707.773438 336.621094 711.769531 335.316406 715.375 333.929688 C 717.765625 333.019531 718.460938 333.972656 717.632812 336.445312 C 715.59375 342.734375 711.507812 348.242188 706.035156 352.019531 C 694.304688 360.214844 681.703125 365.898438 666.933594 365.203125 C 666.105469 365.160156 664.757812 366.027344 664.457031 366.808594 C 656.722656 385.199219 644.949219 400.597656 631.261719 415.042969 C 615.664062 431.527344 596.894531 444.753906 576.085938 453.90625 C 558.011719 461.933594 539.761719 470.519531 520.34375 474.683594 C 490.539062 481.0625 460.429688 481.496094 430.234375 476.417969 C 398.777344 471.171875 367.933594 463.40625 337 456.03125 C 316.492188 451.132812 295.941406 446.058594 274.871094 444.84375 C 258.664062 443.886719 242.328125 444.148438 226.078125 444.667969 C 213.132812 445.058594 200.183594 446.144531 187.324219 447.878906 C 171.902344 449.960938 157.738281 456.378906 143.488281 462.191406 C 124.933594 469.695312 109.859375 481.539062 98.867188 498.367188 C 97.695312 500.144531 96.433594 501.925781 94.042969 500.925781 C 91.65625 499.929688 91.914062 497.585938 92.394531 495.679688 C 93.695312 489.953125 96.519531 484.660156 100.5625 480.367188 C 111.945312 468.394531 124.457031 458.027344 140.054688 451.824219 C 155.261719 445.753906 170.207031 438.898438 186.585938 436.515625 C 197.1875 434.996094 207.917969 433.867188 218.648438 433.304688 C 234.464844 432.523438 250.320312 431.828125 266.179688 432.132812 C 289.597656 432.566406 312.363281 437.902344 335.085938 443.019531 C 360.460938 448.660156 385.703125 455.207031 411.160156 460.585938 C 432.058594 465.011719 453.175781 468.613281 474.765625 467.917969 C 489.972656 467.398438 505.570312 467.832031 520.039062 463.234375 C 549.757812 453.777344 580.125 445.1875 605.585938 426.058594 C 625.746094 410.921875 643.035156 393.007812 653.855469 369.757812 C 654.855469 367.675781 655.546875 365.464844 656.460938 363.207031 Z M 659.328125 351.367188 C 661.023438 344.425781 659.71875 338.265625 657.765625 332.152344 C 655.15625 324.171875 647.640625 319.269531 638.777344 319.660156 C 631.089844 320.007812 626.570312 324.300781 624.441406 333.324219 C 624.398438 333.410156 624.3125 333.539062 624.355469 333.625 C 624.832031 334.882812 624.917969 336.621094 625.832031 337.355469 C 635.476562 345.25 647.078125 348.589844 659.328125 351.367188 Z M 659.328125 351.367188 " fill-opacity="1" fill-rule="nonzero"/></g></svg>