<svg xmlns="http://www.w3.org/2000/svg" xmlns:xlink="http://www.w3.org/1999/xlink" width="1080" zoomAndPan="magnify" viewBox="0 0 810 809.999993" height="1080" preserveAspectRatio="xMidYMid meet" version="1.0"><path fill="#4a67af" d="M 589.535156 376.332031 C 563.929688 375.601562 550.375 409.851562 524.09375 405.8125 C 505.042969 399.511719 493.535156 376.359375 471.832031 376.578125 C 443.460938 374.351562 427.304688 405.453125 401.375 411.105469 C 389.816406 409.132812 384.972656 395.066406 376.617188 387.875 C 363.328125 372.40625 341.648438 358.910156 321.5625 369.148438 C 300.390625 381.679688 285.878906 404.777344 263.222656 414.691406 C 252.109375 417.046875 246.425781 403.085938 239.503906 396.777344 C 230.675781 385.449219 219.84375 372.160156 204.171875 374.164062 C 183.625 375.386719 171.058594 396.109375 159.855469 411.589844 C 157.074219 417.054688 152.816406 423.046875 150.308594 429.308594 C 140.917969 447.144531 162.921875 451.15625 165.289062 439.367188 C 171.035156 426.390625 177.703125 411.636719 187.828125 401.3125 C 206.210938 381.210938 216.523438 396.574219 231.042969 409.457031 C 241.679688 422.222656 258.089844 437.285156 275.488281 428.621094 C 291.597656 419.527344 303.847656 404.503906 318.183594 392.824219 C 334.957031 379.011719 347.144531 376.488281 362.507812 392.300781 C 377.097656 408.96875 399.175781 431.851562 416.441406 423.867188 C 437.164062 415.691406 451.414062 391.730469 474.757812 390.953125 C 496.824219 393.714844 508.511719 420.585938 531.714844 420.65625 C 554.460938 421.824219 568.453125 399.574219 587.929688 391.648438 C 607.714844 389.722656 631.566406 409.882812 643.847656 422.890625 C 659.558594 440.058594 668.816406 425.957031 651.144531 411.136719 C 632.292969 398.171875 610.167969 377.011719 589.535156 376.332031 Z M 589.535156 376.332031 " fill-opacity="1" fill-rule="nonzero"/></svg>