<svg xmlns="http://www.w3.org/2000/svg" xmlns:xlink="http://www.w3.org/1999/xlink" width="1080" zoomAndPan="magnify" viewBox="0 0 810 809.999993" height="1080" preserveAspectRatio="xMidYMid meet" version="1.0"><defs><clipPath id="id1"><path d="M 417 596 L 419 596 L 419 598 L 417 598 Z M 417 596 " clip-rule="nonzero"/></clipPath><clipPath id="id2"><path d="M 439.109375 152.089844 L 647.714844 483.386719 L 371 657.625 L 162.394531 326.328125 Z M 439.109375 152.089844 " clip-rule="nonzero"/></clipPath><clipPath id="id3"><path d="M 439.109375 152.089844 L 647.714844 483.386719 L 371 657.625 L 162.394531 326.328125 Z M 439.109375 152.089844 " clip-rule="nonzero"/></clipPath><clipPath id="id4"><path d="M 439.109375 152.089844 L 647.714844 483.386719 L 371 657.625 L 162.394531 326.328125 Z M 439.109375 152.089844 " clip-rule="nonzero"/></clipPath><clipPath id="id5"><path d="M 235 188 L 533 188 L 533 639 L 235 639 Z M 235 188 " clip-rule="nonzero"/></clipPath><clipPath id="id6"><path d="M 439.109375 152.089844 L 647.714844 483.386719 L 371 657.625 L 162.394531 326.328125 Z M 439.109375 152.089844 " clip-rule="nonzero"/></clipPath><clipPath id="id7"><path d="M 439.109375 152.089844 L 647.714844 483.386719 L 371 657.625 L 162.394531 326.328125 Z M 439.109375 152.089844 " clip-rule="nonzero"/></clipPath><clipPath id="id8"><path d="M 439.109375 152.089844 L 647.714844 483.386719 L 371 657.625 L 162.394531 326.328125 Z M 439.109375 152.089844 " clip-rule="nonzero"/></clipPath><clipPath id="id9"><path d="M 311 307 L 312 307 L 312 309 L 311 309 Z M 311 307 " clip-rule="nonzero"/></clipPath><clipPath id="id10"><path d="M 439.109375 152.089844 L 647.714844 483.386719 L 371 657.625 L 162.394531 326.328125 Z M 439.109375 152.089844 " clip-rule="nonzero"/></clipPath><clipPath id="id11"><path d="M 439.109375 152.089844 L 647.714844 483.386719 L 371 657.625 L 162.394531 326.328125 Z M 439.109375 152.089844 " clip-rule="nonzero"/></clipPath><clipPath id="id12"><path d="M 439.109375 152.089844 L 647.714844 483.386719 L 371 657.625 L 162.394531 326.328125 Z M 439.109375 152.089844 " clip-rule="nonzero"/></clipPath><clipPath id="id13"><path d="M 263 451 L 265 451 L 265 453 L 263 453 Z M 263 451 " clip-rule="nonzero"/></clipPath><clipPath id="id14"><path d="M 439.109375 152.089844 L 647.714844 483.386719 L 371 657.625 L 162.394531 326.328125 Z M 439.109375 152.089844 " clip-rule="nonzero"/></clipPath><clipPath id="id15"><path d="M 439.109375 152.089844 L 647.714844 483.386719 L 371 657.625 L 162.394531 326.328125 Z M 439.109375 152.089844 " clip-rule="nonzero"/></clipPath><clipPath id="id16"><path d="M 439.109375 152.089844 L 647.714844 483.386719 L 371 657.625 L 162.394531 326.328125 Z M 439.109375 152.089844 " clip-rule="nonzero"/></clipPath></defs><g clip-path="url(#id1)"><g clip-path="url(#id2)"><g clip-path="url(#id3)"><g clip-path="url(#id4)"><path fill="#000000" d="M 417.449219 597.238281 C 417.453125 597.238281 417.457031 597.234375 417.460938 597.230469 C 417.960938 596.816406 419.316406 595.554688 417.449219 597.238281 Z M 417.449219 597.238281 " fill-opacity="1" fill-rule="nonzero"/></g></g></g></g><g clip-path="url(#id5)"><g clip-path="url(#id6)"><g clip-path="url(#id7)"><g clip-path="url(#id8)"><path fill="#000000" d="M 404.515625 636.230469 C 404.570312 636.183594 404.621094 636.132812 404.675781 636.085938 C 404.722656 636.042969 404.773438 636 404.816406 635.953125 C 404.90625 635.871094 405.003906 635.789062 405.089844 635.703125 C 413.839844 626.933594 422.675781 618.246094 431.476562 609.527344 C 435.511719 606.121094 439.378906 602.523438 442.652344 598.40625 C 445.65625 594.625 446.074219 588.6875 442.054688 585.328125 C 438.066406 581.996094 432.648438 582.25 428.980469 585.921875 C 425.53125 589.375 422.070312 592.816406 418.605469 596.253906 C 418.171875 596.613281 417.742188 596.976562 417.328125 597.351562 C 417.375 597.3125 417.410156 597.277344 417.453125 597.242188 C 417.007812 597.605469 416.5625 597.96875 416.117188 598.332031 C 415.179688 599.101562 414.238281 599.863281 413.296875 600.628906 C 413.175781 589.65625 411.054688 578.617188 407.691406 568.082031 C 404.164062 557.023438 399.296875 546.40625 393.960938 536.113281 C 393.554688 535.324219 393.132812 534.539062 392.71875 533.753906 C 409.152344 533.625 425.496094 530.246094 439.824219 521.890625 C 460.117188 510.058594 472.691406 488.597656 475.789062 465.59375 C 477.375 453.828125 476.921875 442.207031 474.710938 430.558594 C 472.273438 417.703125 467.152344 405.390625 460.964844 393.914062 C 459.347656 390.921875 457.640625 387.984375 455.851562 385.097656 C 456.601562 384.976562 457.351562 384.863281 458.101562 384.734375 C 468.207031 382.976562 478.136719 380.167969 487.636719 376.289062 C 498.691406 371.773438 509.144531 365.867188 517.710938 357.441406 C 526.589844 348.703125 532.035156 337.304688 532.5625 324.824219 C 533.109375 311.871094 527.796875 299.363281 522.105469 288.039062 C 511.777344 267.5 497.140625 248.957031 479.972656 233.703125 C 462.722656 218.378906 442.613281 205.980469 420.984375 197.902344 C 410.261719 193.898438 399.320312 190.71875 388.035156 188.757812 C 383.269531 187.925781 377.894531 190.636719 376.964844 195.726562 C 376.101562 200.453125 378.847656 205.917969 383.9375 206.804688 C 389.273438 207.730469 394.558594 208.902344 399.78125 210.328125 C 402.296875 211.015625 404.796875 211.761719 407.277344 212.566406 C 408.472656 212.949219 409.660156 213.347656 410.847656 213.761719 C 411.410156 213.957031 411.96875 214.15625 412.527344 214.355469 C 412.773438 214.445312 413.011719 214.535156 413.253906 214.628906 C 423.285156 218.429688 432.964844 223.144531 442.152344 228.675781 C 444.390625 230.019531 446.597656 231.414062 448.777344 232.851562 C 449.808594 233.535156 450.828125 234.234375 451.851562 234.933594 C 451.925781 234.984375 451.996094 235.039062 452.070312 235.089844 C 452.703125 235.539062 453.328125 235.992188 453.953125 236.449219 C 458.246094 239.589844 462.402344 242.914062 466.40625 246.417969 C 470.480469 249.980469 474.398438 253.722656 478.144531 257.636719 C 480.011719 259.589844 481.839844 261.585938 483.621094 263.625 C 484 264.0625 484.382812 264.5 484.757812 264.9375 C 484.882812 265.082031 485.207031 265.46875 485.464844 265.773438 C 485.730469 266.097656 486.054688 266.488281 486.140625 266.59375 C 486.566406 267.117188 486.988281 267.644531 487.410156 268.175781 C 494.078125 276.570312 499.984375 285.574219 504.984375 295.0625 C 505.617188 296.257812 506.234375 297.464844 506.835938 298.675781 C 507.378906 299.769531 507.828125 301.40625 508.589844 302.347656 C 508.871094 302.988281 509.144531 303.632812 509.414062 304.28125 C 509.996094 305.679688 510.546875 307.089844 511.054688 308.519531 C 511.964844 311.070312 512.746094 313.671875 513.335938 316.316406 C 513.46875 316.914062 513.523438 317.609375 513.707031 318.210938 C 513.726562 318.351562 513.746094 318.496094 513.765625 318.640625 C 513.9375 320.011719 514.042969 321.390625 514.082031 322.773438 C 514.113281 323.960938 513.84375 325.308594 513.980469 326.480469 C 513.960938 326.625 513.941406 326.769531 513.921875 326.914062 C 513.808594 327.65625 513.671875 328.390625 513.511719 329.121094 C 513.265625 330.25 512.941406 331.351562 512.609375 332.457031 C 512.605469 332.472656 512.601562 332.480469 512.597656 332.492188 C 512.375 333.046875 512.136719 333.601562 511.886719 334.144531 C 511.375 335.253906 510.808594 336.335938 510.191406 337.390625 C 509.929688 337.84375 509.65625 338.289062 509.375 338.730469 C 509.269531 338.898438 509.152344 339.0625 509.035156 339.230469 C 507.609375 341.113281 506.089844 342.90625 504.421875 344.578125 C 503.59375 345.40625 502.742188 346.210938 501.867188 346.984375 C 501.765625 347.074219 501.667969 347.160156 501.566406 347.246094 C 501.105469 347.605469 500.652344 347.984375 500.1875 348.339844 C 498.214844 349.847656 496.15625 351.246094 494.042969 352.546875 C 491.839844 353.902344 489.574219 355.15625 487.265625 356.316406 C 486.6875 356.605469 486.109375 356.890625 485.527344 357.167969 C 484.355469 357.625 483.210938 358.191406 482.042969 358.664062 C 473.027344 362.324219 463.625 365.023438 454.054688 366.777344 C 453.511719 366.875 452.96875 366.96875 452.421875 367.066406 C 452.363281 367.074219 452.3125 367.082031 452.242188 367.09375 C 451.019531 367.28125 449.796875 367.453125 448.570312 367.613281 C 447.078125 367.804688 445.582031 367.964844 444.085938 368.113281 C 442.085938 365.484375 440.042969 362.886719 437.960938 360.328125 C 429.371094 349.753906 420.363281 339.476562 410.984375 329.597656 C 393.699219 311.386719 374.089844 294.328125 350.882812 284.171875 C 339.753906 279.304688 327.527344 277.484375 315.566406 279.992188 C 309.855469 281.191406 304.566406 283.917969 300.304688 287.898438 C 295.527344 292.363281 293.273438 298.636719 292.804688 305.019531 C 291.851562 318.019531 301.519531 329.199219 309.890625 337.9375 C 317.445312 345.824219 325.90625 352.644531 334.914062 358.789062 C 352.414062 370.730469 372.542969 379.050781 393.230469 383.511719 C 407.027344 386.484375 421.070312 387.679688 435.078125 387.152344 C 438.703125 392.417969 442.089844 397.84375 445.136719 403.464844 C 445.859375 404.792969 446.558594 406.132812 447.238281 407.480469 C 447.605469 408.207031 447.964844 408.9375 448.316406 409.667969 C 448.46875 409.984375 448.621094 410.296875 448.769531 410.613281 C 448.785156 410.640625 448.921875 410.9375 449.058594 411.234375 C 449.113281 411.351562 449.164062 411.464844 449.191406 411.523438 C 449.375 411.949219 449.5625 412.371094 449.75 412.800781 C 450.023438 413.441406 450.292969 414.082031 450.558594 414.726562 C 451.222656 416.339844 451.855469 417.964844 452.449219 419.605469 C 454.316406 424.742188 455.839844 430 456.886719 435.367188 C 457 435.945312 457.097656 436.523438 457.210938 437.101562 C 457.410156 438.421875 457.585938 439.746094 457.730469 441.070312 C 458 443.507812 458.179688 445.957031 458.265625 448.410156 C 458.351562 450.949219 458.339844 453.488281 458.222656 456.027344 C 458.167969 457.15625 458.085938 458.285156 458 459.414062 C 457.992188 459.476562 457.984375 459.535156 457.976562 459.613281 C 457.894531 460.328125 457.804688 461.042969 457.707031 461.753906 C 457.035156 466.621094 455.953125 471.433594 454.414062 476.097656 C 454.3125 476.410156 454.203125 476.71875 454.09375 477.027344 C 453.972656 477.296875 453.878906 477.625 453.78125 477.871094 C 453.328125 479.019531 452.84375 480.15625 452.332031 481.28125 C 451.308594 483.523438 450.164062 485.710938 448.902344 487.824219 C 448.320312 488.800781 447.710938 489.761719 447.078125 490.707031 C 446.707031 491.203125 446.34375 491.699219 445.964844 492.1875 C 444.445312 494.152344 442.804688 496.027344 441.054688 497.792969 C 440.171875 498.679688 439.265625 499.539062 438.332031 500.371094 C 438.132812 500.550781 437.914062 500.730469 437.703125 500.910156 C 437.25 501.273438 436.792969 501.640625 436.328125 501.992188 C 434.214844 503.589844 432.003906 505.054688 429.707031 506.378906 C 428.523438 507.0625 427.320312 507.707031 426.09375 508.316406 C 425.570312 508.578125 425.027344 508.808594 424.511719 509.082031 C 427 507.757812 424.753906 508.957031 424.085938 509.234375 C 421.550781 510.292969 418.957031 511.207031 416.320312 511.984375 C 413.660156 512.769531 410.957031 513.417969 408.230469 513.9375 C 407.765625 514.027344 407.289062 514.097656 406.820312 514.1875 C 406.597656 514.21875 406.378906 514.253906 406.160156 514.285156 C 404.765625 514.480469 403.367188 514.648438 401.964844 514.785156 C 396.285156 515.339844 390.5625 515.417969 384.863281 515.109375 C 383.890625 515.058594 382.917969 514.980469 381.949219 514.90625 C 379.296875 510.601562 376.546875 506.359375 373.703125 502.179688 C 358.546875 479.917969 340.746094 459.320312 320.851562 441.171875 C 311.027344 432.210938 300.671875 423.835938 289.84375 416.121094 C 279.476562 408.738281 267.933594 401.535156 254.636719 404.351562 C 249.539062 405.433594 244.273438 408.652344 241.160156 412.867188 C 237.695312 417.570312 236.140625 422.699219 235.839844 428.511719 C 235.339844 438.199219 239.394531 448.34375 244.390625 456.449219 C 247.261719 461.105469 250.90625 465.203125 254.640625 469.179688 C 258.765625 473.578125 263.09375 477.785156 267.59375 481.796875 C 277.035156 490.203125 287.285156 497.746094 298.03125 504.398438 C 308.28125 510.746094 319.089844 516.199219 330.296875 520.65625 C 342.03125 525.316406 354.136719 529.226562 366.582031 531.445312 C 367.941406 531.6875 369.3125 531.910156 370.683594 532.117188 C 373.558594 537.070312 376.3125 542.089844 378.925781 547.183594 C 380.175781 549.617188 381.394531 552.066406 382.566406 554.539062 C 382.777344 554.984375 382.984375 555.433594 383.191406 555.878906 C 383.210938 555.917969 383.226562 555.957031 383.246094 555.996094 C 383.769531 557.164062 384.277344 558.332031 384.777344 559.511719 C 386.785156 564.238281 388.59375 569.050781 390.136719 573.945312 C 391.636719 578.710938 392.886719 583.558594 393.785156 588.476562 C 393.8125 588.636719 393.839844 588.796875 393.871094 588.957031 C 393.925781 589.335938 393.988281 589.714844 394.042969 590.089844 C 394.230469 591.414062 394.390625 592.742188 394.519531 594.070312 C 394.761719 596.53125 394.902344 599.003906 394.921875 601.476562 C 394.945312 603.683594 394.828125 605.875 394.691406 608.078125 C 394.683594 608.144531 394.675781 608.207031 394.667969 608.273438 C 394.605469 608.789062 394.539062 609.308594 394.464844 609.824219 C 394.292969 611.03125 394.089844 612.230469 393.851562 613.425781 C 393.835938 613.507812 393.8125 613.59375 393.792969 613.675781 C 392.136719 611.957031 390.542969 610.171875 388.980469 608.363281 C 383.796875 602.375 378.757812 596.285156 373.082031 590.742188 C 369.617188 587.359375 363.136719 587.589844 360.007812 591.339844 C 356.707031 595.289062 356.890625 600.789062 360.605469 604.414062 C 366.417969 610.085938 371.550781 616.335938 376.867188 622.457031 C 381.429688 627.707031 386.285156 632.359375 391.953125 636.304688 C 392.539062 636.84375 393.210938 637.3125 393.976562 637.671875 C 396.058594 639.011719 398.617188 639.019531 400.925781 638.242188 C 402.25 637.859375 403.472656 637.179688 404.515625 636.230469 Z M 514.042969 326.03125 C 514.042969 326.039062 514.042969 326.046875 514.039062 326.058594 C 514.105469 325.523438 514.199219 324.960938 514.042969 326.03125 Z M 509.265625 338.933594 C 509.257812 338.945312 509.25 338.957031 509.238281 338.96875 C 509.511719 338.597656 509.722656 338.324219 509.265625 338.933594 Z M 314.136719 300.234375 C 314.214844 300.25 313.832031 300.539062 313.46875 300.804688 C 313.738281 300.5 314.019531 300.214844 314.136719 300.234375 Z M 419.179688 368.570312 C 418.03125 368.5 416.882812 368.417969 415.734375 368.324219 C 415.375 368.292969 415.015625 368.261719 414.65625 368.226562 C 414.300781 368.191406 413.949219 368.152344 413.59375 368.113281 C 408.75 367.574219 403.929688 366.816406 399.152344 365.84375 C 394.375 364.871094 389.640625 363.6875 384.96875 362.289062 C 382.589844 361.578125 380.230469 360.8125 377.886719 359.992188 C 377.652344 359.910156 376.878906 359.628906 376.585938 359.527344 C 376.371094 359.445312 376.1875 359.378906 376.113281 359.347656 C 374.953125 358.910156 373.800781 358.457031 372.648438 357.988281 C 363.554688 354.289062 354.792969 349.757812 346.546875 344.425781 C 345.582031 343.800781 344.625 343.167969 343.675781 342.519531 C 343.605469 342.472656 343.453125 342.367188 343.277344 342.246094 C 343.011719 342.058594 342.355469 341.597656 342.167969 341.460938 C 340.164062 340.015625 338.195312 338.515625 336.261719 336.96875 C 332.398438 333.875 328.691406 330.582031 325.167969 327.105469 C 323.464844 325.425781 321.804688 323.703125 320.1875 321.9375 C 319.402344 321.078125 318.621094 320.210938 317.859375 319.328125 C 317.800781 319.261719 317.742188 319.183594 317.679688 319.109375 C 317.242188 318.542969 316.789062 317.988281 316.359375 317.414062 C 315.605469 316.402344 314.882812 315.367188 314.210938 314.304688 C 313.851562 313.734375 313.503906 313.15625 313.175781 312.566406 C 313.042969 312.335938 312.601562 311.433594 312.410156 311.066406 C 312.347656 310.917969 312.292969 310.789062 312.269531 310.71875 C 312.039062 310.109375 311.828125 309.492188 311.648438 308.867188 C 311.617188 308.761719 311.59375 308.652344 311.570312 308.539062 C 311.519531 308.582031 311.40625 308.386719 311.371094 307.996094 C 311.355469 307.828125 311.34375 307.65625 311.328125 307.488281 C 311.300781 307.410156 311.28125 307.332031 311.25 307.257812 C 311.277344 307.320312 311.296875 307.378906 311.320312 307.4375 C 311.304688 307.257812 311.285156 307.082031 311.273438 306.902344 C 311.246094 306.453125 311.257812 306.003906 311.261719 305.558594 C 311.304688 305.277344 311.332031 304.941406 311.339844 304.886719 C 311.433594 304.417969 311.546875 303.949219 311.679688 303.484375 C 311.679688 303.484375 311.679688 303.484375 311.679688 303.480469 C 311.910156 303.039062 312.109375 302.582031 312.359375 302.148438 C 312.359375 302.144531 312.359375 302.144531 312.363281 302.144531 C 312.550781 301.902344 312.796875 301.589844 312.90625 301.464844 C 312.992188 301.371094 313.199219 301.113281 313.421875 300.855469 C 313.476562 300.808594 313.535156 300.761719 313.589844 300.722656 C 314.007812 300.414062 314.441406 300.125 314.878906 299.855469 C 315.285156 299.605469 315.707031 299.386719 316.121094 299.152344 C 317.074219 298.785156 318.03125 298.445312 319.015625 298.175781 C 319.488281 298.046875 319.960938 297.929688 320.433594 297.820312 C 320.542969 297.796875 320.847656 297.738281 321.160156 297.675781 C 321.515625 297.628906 322.058594 297.550781 322.261719 297.53125 C 322.773438 297.476562 323.285156 297.433594 323.796875 297.402344 C 325.09375 297.316406 326.398438 297.292969 327.699219 297.320312 C 328.3125 297.332031 328.929688 297.359375 329.542969 297.394531 C 329.652344 297.402344 329.761719 297.410156 329.871094 297.417969 C 330.90625 297.558594 331.949219 297.675781 332.980469 297.859375 C 335.386719 298.285156 337.761719 298.878906 340.078125 299.652344 C 340.109375 299.660156 340.136719 299.671875 340.167969 299.683594 C 340.695312 299.90625 341.226562 300.113281 341.753906 300.339844 C 343.117188 300.925781 344.472656 301.542969 345.816406 302.179688 C 351.074219 304.679688 356.152344 307.550781 361.039062 310.707031 C 362.273438 311.503906 363.484375 312.332031 364.703125 313.148438 C 364.753906 313.183594 364.804688 313.222656 364.855469 313.257812 C 365.546875 313.75 366.230469 314.246094 366.914062 314.746094 C 369.3125 316.507812 371.660156 318.332031 373.96875 320.207031 C 383.183594 327.703125 391.699219 336.023438 399.832031 344.671875 C 403.894531 348.996094 407.867188 353.402344 411.789062 357.855469 C 413.960938 360.320312 416.117188 362.804688 418.246094 365.308594 C 418.703125 365.84375 419.160156 366.382812 419.613281 366.921875 C 419.683594 367.007812 419.839844 367.191406 419.984375 367.363281 C 420.015625 367.402344 420.042969 367.4375 420.0625 367.457031 C 420.390625 367.859375 420.71875 368.265625 421.050781 368.664062 C 420.429688 368.632812 419.804688 368.609375 419.179688 368.570312 Z M 276.246094 428.996094 C 276.972656 429.488281 276.453125 429.148438 276.03125 428.851562 C 276.101562 428.898438 276.171875 428.949219 276.246094 428.996094 Z M 255.878906 423.855469 C 256.035156 423.605469 256.246094 423.316406 255.878906 423.855469 Z M 256.988281 440.90625 C 256.957031 440.8125 257.164062 441.289062 257.351562 441.71875 C 257.207031 441.449219 257.074219 441.175781 256.988281 440.90625 Z M 353.105469 509.164062 C 350.417969 508.355469 347.746094 507.492188 345.09375 506.574219 C 344.40625 506.335938 343.722656 506.089844 343.035156 505.847656 C 342.992188 505.832031 342.96875 505.824219 342.929688 505.808594 C 342.925781 505.808594 342.921875 505.808594 342.917969 505.804688 C 341.457031 505.253906 340 504.699219 338.550781 504.121094 C 327.835938 499.839844 317.484375 494.652344 307.636719 488.632812 C 305.242188 487.171875 302.875 485.65625 300.542969 484.097656 C 299.9375 483.691406 299.335938 483.285156 298.734375 482.875 C 298.554688 482.753906 298.375 482.628906 298.195312 482.507812 C 297.078125 481.707031 295.957031 480.914062 294.851562 480.097656 C 290.246094 476.707031 285.78125 473.125 281.476562 469.363281 C 277.09375 465.53125 272.875 461.515625 268.835938 457.320312 C 267.902344 456.34375 266.972656 455.363281 266.054688 454.371094 C 265.5625 453.835938 265.070312 453.296875 264.582031 452.757812 C 264.496094 452.660156 264.328125 452.507812 264.144531 452.335938 C 264.222656 452.441406 264.234375 452.460938 264.125 452.320312 C 263.722656 451.945312 263.222656 451.464844 263.183594 451.183594 C 263.179688 451.152344 263.246094 451.21875 263.34375 451.332031 C 263.136719 451.0625 262.921875 450.792969 262.71875 450.519531 C 262.089844 449.675781 261.488281 448.816406 260.910156 447.9375 C 259.730469 446.144531 258.65625 444.28125 257.691406 442.359375 C 257.625 442.226562 257.546875 442.085938 257.472656 441.945312 C 257.40625 441.789062 257.335938 441.632812 257.269531 441.480469 C 256.828125 440.429688 256.417969 439.363281 256.046875 438.285156 C 255.421875 436.472656 254.960938 434.636719 254.550781 432.769531 C 254.503906 432.359375 254.449219 431.949219 254.414062 431.535156 C 254.332031 430.589844 254.296875 429.640625 254.3125 428.695312 C 254.316406 428.480469 254.328125 428.269531 254.34375 428.058594 C 254.488281 427.269531 254.679688 426.507812 254.867188 425.734375 C 254.964844 425.515625 255.0625 425.296875 255.171875 425.082031 C 255.28125 424.875 255.402344 424.671875 255.523438 424.46875 C 255.765625 424.203125 255.996094 423.925781 256.25 423.667969 C 256.253906 423.667969 256.253906 423.667969 256.253906 423.667969 C 256.429688 423.535156 256.617188 423.398438 256.714844 423.332031 C 257.054688 423.109375 257.40625 422.914062 257.757812 422.714844 C 258.175781 422.570312 258.589844 422.425781 259.015625 422.308594 C 259.078125 422.289062 259.183594 422.273438 259.304688 422.25 C 259.808594 422.21875 260.320312 422.136719 260.824219 422.132812 C 261.15625 422.128906 261.488281 422.148438 261.820312 422.167969 C 261.949219 422.1875 262.078125 422.207031 262.207031 422.230469 C 263.433594 422.449219 264.597656 422.816406 265.792969 423.152344 C 266.339844 423.375 266.882812 423.609375 267.417969 423.855469 C 268.5625 424.382812 269.683594 424.960938 270.78125 425.578125 C 271.882812 426.191406 272.960938 426.847656 274.023438 427.523438 C 274.476562 427.8125 274.921875 428.105469 275.367188 428.402344 C 275.546875 428.519531 275.71875 428.640625 275.894531 428.757812 C 278.332031 430.660156 280.953125 432.363281 283.425781 434.210938 C 303.542969 449.25 321.929688 466.585938 338.175781 485.742188 C 338.378906 485.984375 338.585938 486.230469 338.792969 486.472656 C 339.210938 486.996094 339.652344 487.507812 340.078125 488.023438 C 341.085938 489.253906 342.085938 490.492188 343.078125 491.734375 C 345.0625 494.222656 347.011719 496.738281 348.921875 499.285156 C 351.621094 502.875 354.246094 506.523438 356.800781 510.222656 C 355.5625 509.882812 354.332031 509.53125 353.105469 509.164062 Z M 353.105469 509.164062 " fill-opacity="1" fill-rule="nonzero"/></g></g></g></g><g clip-path="url(#id9)"><g clip-path="url(#id10)"><g clip-path="url(#id11)"><g clip-path="url(#id12)"><path fill="#000000" d="M 311.324219 307.433594 C 311.324219 307.453125 311.324219 307.46875 311.328125 307.484375 C 311.433594 307.820312 311.496094 308.1875 311.570312 308.539062 C 311.628906 308.492188 311.605469 308.148438 311.324219 307.433594 Z M 311.324219 307.433594 " fill-opacity="1" fill-rule="nonzero"/></g></g></g></g><g clip-path="url(#id13)"><g clip-path="url(#id14)"><g clip-path="url(#id15)"><g clip-path="url(#id16)"><path fill="#000000" d="M 263.664062 451.746094 C 263.800781 451.917969 263.945312 452.085938 264.078125 452.257812 C 264.097656 452.285156 264.109375 452.300781 264.125 452.320312 C 264.132812 452.324219 264.136719 452.332031 264.144531 452.335938 C 263.984375 452.128906 263.574219 451.597656 263.34375 451.332031 C 263.453125 451.46875 263.554688 451.609375 263.664062 451.746094 Z M 263.664062 451.746094 " fill-opacity="1" fill-rule="nonzero"/></g></g></g></g></svg>