<svg xmlns="http://www.w3.org/2000/svg" xmlns:xlink="http://www.w3.org/1999/xlink" width="1080" zoomAndPan="magnify" viewBox="0 0 810 809.999993" height="1080" preserveAspectRatio="xMidYMid meet" version="1.0"><defs><clipPath id="id1"><path d="M 111.101562 341.445312 L 699 341.445312 L 699 468 L 111.101562 468 Z M 111.101562 341.445312 " clip-rule="nonzero"/></clipPath></defs><g clip-path="url(#id1)"><path fill="#4a67af" d="M 523.265625 393.492188 C 523.769531 393.574219 524.269531 393.617188 524.8125 393.660156 C 552.550781 393.699219 580.332031 393.617188 608.074219 393.742188 C 635.730469 393.867188 663.382812 394.199219 691 394.574219 C 692.792969 394.574219 694.589844 395.074219 696.136719 395.949219 C 698.433594 397.40625 699.101562 399.863281 698.140625 402.445312 C 697.140625 405.195312 694.925781 406.570312 692.085938 406.277344 C 663.761719 403.070312 635.351562 405.859375 606.988281 405.527344 C 588.4375 405.320312 569.890625 404.945312 551.382812 404.902344 C 522.722656 404.863281 494.234375 407.070312 465.742188 409.734375 C 445.144531 411.648438 424.507812 412.859375 403.953125 415.148438 C 393.59375 416.3125 383.359375 418.9375 373.125 421.3125 C 325.457031 432.304688 277.875 443.757812 230.082031 454.378906 C 208.566406 459.167969 186.71875 462.5 164.953125 466.039062 C 155.21875 467.621094 145.277344 468.078125 135.542969 465.832031 C 132.449219 465.082031 129.527344 463.664062 127.0625 461.667969 C 123.007812 458.335938 123.300781 453.378906 127.355469 450.089844 C 129.277344 448.589844 131.363281 447.257812 133.578125 446.132812 C 152.964844 435.511719 173.933594 429.558594 195.574219 425.808594 C 237.894531 418.480469 280.378906 411.941406 323.199219 408.152344 C 343.878906 406.320312 364.683594 405.359375 385.488281 404.902344 C 402.367188 404.527344 418.617188 400.820312 435.078125 398.03125 C 474.765625 391.285156 514.496094 384.496094 554.265625 378.417969 C 591.238281 372.753906 628 366.046875 664.304688 357.09375 C 667.269531 356.34375 670.109375 355.261719 673.285156 354.261719 C 672.117188 351.222656 669.945312 350.515625 667.730469 350.515625 C 660.792969 350.597656 653.777344 350.597656 646.882812 351.304688 C 630.589844 352.972656 614.339844 354.84375 598.089844 356.96875 C 586.433594 358.511719 574.859375 360.71875 563.207031 362.339844 C 537.011719 366.007812 510.816406 369.421875 484.625 373.042969 C 467.957031 375.335938 451.371094 378 434.703125 380.164062 C 420.496094 382.039062 406.253906 383.621094 391.964844 384.996094 C 374.585938 386.621094 357.164062 387.996094 339.746094 389.160156 C 318.6875 390.535156 297.632812 391.910156 276.535156 392.660156 C 254.898438 393.449219 233.339844 394.992188 211.824219 397.613281 C 192.066406 400.03125 172.222656 401.945312 152.460938 404.363281 C 144.191406 405.359375 136 407.109375 127.730469 408.316406 C 124.011719 408.777344 120.292969 408.984375 116.535156 408.859375 C 114.445312 408.859375 111.773438 408.652344 111.4375 406.027344 C 111.101562 403.402344 113.609375 402.488281 115.65625 401.988281 C 123.886719 400.03125 132.074219 397.613281 140.386719 396.449219 C 167.667969 392.742188 194.949219 388.828125 222.3125 386.289062 C 247.878906 383.871094 273.613281 383.207031 299.304688 381.582031 C 330.636719 379.625 362.011719 378.082031 393.257812 375.210938 C 423.632812 372.417969 453.917969 368.421875 484.207031 364.546875 C 514.910156 360.632812 545.535156 356.175781 576.199219 352.054688 C 601.679688 348.640625 627.164062 345.308594 652.648438 342.226562 C 657.996094 341.558594 663.550781 342.019531 668.984375 342.394531 C 671.238281 342.558594 673.578125 343.558594 675.542969 344.726562 C 683.351562 349.472656 683.4375 358.550781 675.25 362.464844 C 669.066406 365.421875 662.214844 367.253906 655.53125 369.003906 C 619.101562 378.332031 582.046875 384.453125 544.824219 389.703125 C 537.636719 390.703125 530.496094 391.910156 523.308594 393.035156 Z M 138.132812 454.710938 L 138.425781 456.003906 C 142.476562 456.003906 146.570312 456.378906 150.539062 455.917969 C 165.203125 454.210938 179.949219 452.796875 194.445312 450.214844 C 242.238281 441.800781 289.488281 430.933594 336.609375 419.4375 C 338.992188 418.855469 341.375 418.269531 343.796875 417.648438 L 343.628906 416.8125 C 330.636719 417.980469 317.601562 418.6875 304.695312 420.4375 C 270.144531 425.058594 235.597656 429.933594 201.128906 435.054688 C 180.410156 438.179688 160.316406 443.71875 141.433594 453.003906 C 140.261719 453.585938 139.21875 454.171875 138.132812 454.710938 Z M 138.132812 454.710938 " fill-opacity="1" fill-rule="nonzero"/></g></svg>