<svg xmlns="http://www.w3.org/2000/svg" xmlns:xlink="http://www.w3.org/1999/xlink" width="1080" zoomAndPan="magnify" viewBox="0 0 810 809.999993" height="1080" preserveAspectRatio="xMidYMid meet" version="1.0"><defs><clipPath id="id1"><path d="M 58 89.132812 L 752.796875 89.132812 L 752.796875 720 L 58 720 Z M 58 89.132812 " clip-rule="nonzero"/></clipPath><clipPath id="id2"><path d="M 58 89.132812 L 752.796875 89.132812 L 752.796875 720 L 58 720 Z M 58 89.132812 " clip-rule="nonzero"/></clipPath></defs><g clip-path="url(#id1)"><path fill="#4a67af" d="M 744.019531 686.550781 C 735.296875 687.15625 726.863281 687.8125 718.417969 688.316406 C 705.21875 689.109375 692.015625 689.816406 678.816406 690.527344 C 640.957031 692.5625 603.09375 694.496094 565.152344 693.519531 C 542.332031 692.933594 519.507812 692.285156 496.683594 692.027344 C 478.507812 691.824219 460.324219 692.144531 442.140625 692.289062 C 429.953125 692.386719 417.765625 692.726562 405.574219 692.722656 C 371.175781 692.714844 336.773438 692.4375 302.371094 692.566406 C 284.503906 692.632812 266.640625 693.316406 248.777344 693.753906 C 224.710938 694.339844 200.648438 694.582031 176.578125 693.644531 C 155.316406 692.816406 134.042969 692.207031 112.777344 691.484375 C 106.273438 691.265625 99.773438 690.914062 93.269531 690.765625 C 85.214844 690.582031 77.160156 690.539062 69.105469 690.441406 C 68.082031 690.425781 67.058594 690.4375 65.707031 690.4375 C 65.460938 689.332031 65.144531 688.285156 64.992188 687.210938 C 62.847656 671.945312 62.328125 656.574219 62.148438 641.195312 C 61.648438 598.359375 61.609375 555.519531 62.761719 512.695312 C 63.589844 481.832031 63.09375 450.976562 62.972656 420.117188 C 62.824219 380.476562 63.800781 340.855469 64.703125 301.226562 C 65.453125 268.210938 65.390625 235.175781 65.730469 202.148438 C 65.90625 185.324219 66.171875 168.5 66.402344 151.679688 C 66.417969 150.5625 66.515625 149.445312 66.578125 148.230469 C 67.089844 148.097656 67.464844 147.910156 67.84375 147.910156 C 80.339844 147.84375 92.835938 147.804688 105.332031 147.734375 C 119.488281 147.660156 133.640625 147.710938 147.789062 147.429688 C 164.210938 147.105469 180.621094 146.453125 197.039062 145.992188 C 202.203125 145.847656 207.367188 145.859375 212.53125 145.796875 C 224 145.65625 235.464844 145.324219 246.929688 145.417969 C 272.753906 145.632812 298.574219 146.089844 324.398438 146.394531 C 336.792969 146.539062 349.191406 146.566406 361.585938 146.621094 C 376.875 146.691406 392.164062 146.808594 407.449219 146.78125 C 456.933594 146.691406 506.417969 146.53125 555.902344 146.425781 C 573.875 146.386719 591.855469 146.199219 609.824219 146.496094 C 625.003906 146.746094 640.167969 147.738281 655.34375 148.148438 C 677.128906 148.742188 698.921875 149.15625 720.710938 149.542969 C 728.871094 149.6875 737.035156 149.53125 745.195312 149.523438 C 745.902344 149.523438 746.605469 149.585938 747.570312 149.628906 C 747.691406 151.578125 747.851562 153.398438 747.917969 155.226562 C 749.332031 194.964844 748.089844 234.691406 747.207031 274.414062 C 747.085938 279.882812 747.015625 285.355469 746.9375 290.824219 C 746.476562 322.199219 745.875 353.570312 745.609375 384.945312 C 745.386719 411.570312 745.535156 438.203125 745.558594 464.832031 C 745.582031 489.914062 745.636719 514.992188 745.722656 540.074219 C 745.835938 571.554688 745.929688 603.035156 746.167969 634.515625 C 746.289062 650.734375 745.921875 666.917969 744.441406 683.074219 C 744.347656 684.089844 744.199219 685.097656 744.019531 686.550781 Z M 747.335938 144.726562 C 746.347656 133.421875 745.402344 122.109375 744.304688 110.8125 C 744.128906 109.011719 743.453125 107.183594 742.667969 105.53125 C 740.964844 101.949219 738.152344 99.679688 734.09375 99.230469 C 731.9375 98.992188 729.78125 98.753906 727.617188 98.640625 C 721.121094 98.296875 714.585938 98.320312 708.125 97.648438 C 690.429688 95.796875 672.699219 94.960938 654.917969 95.121094 C 619.898438 95.4375 584.875 95.746094 549.855469 96.152344 C 538.082031 96.285156 526.300781 96.46875 514.542969 97.0625 C 503.78125 97.609375 493.046875 97.519531 482.347656 96.605469 C 466.796875 95.273438 451.234375 94.136719 435.632812 94.207031 C 414.457031 94.296875 393.28125 94.773438 372.105469 95.03125 C 349.070312 95.3125 326.03125 95.835938 302.996094 95.703125 C 268.703125 95.503906 234.40625 94.828125 200.113281 94.347656 C 194.949219 94.273438 189.785156 94.171875 184.621094 94.046875 C 167.890625 93.644531 151.152344 92.886719 134.441406 94.195312 C 119.515625 95.359375 104.605469 96.738281 89.707031 98.242188 C 84.277344 98.789062 78.878906 99.800781 73.53125 100.929688 C 69.183594 101.851562 68.382812 103.011719 67.847656 107.457031 C 66.402344 119.378906 66.722656 131.359375 66.683594 143.324219 C 66.683594 143.609375 66.859375 143.890625 67.054688 144.488281 C 68 144.488281 69.003906 144.5 70.007812 144.488281 C 79.71875 144.363281 89.429688 144.226562 99.136719 144.109375 C 123 143.816406 146.871094 143.863281 170.71875 143.167969 C 207.488281 142.101562 244.253906 141.761719 281.035156 142.164062 C 324.417969 142.636719 367.808594 142.988281 411.195312 143.054688 C 458.71875 143.125 506.242188 142.765625 553.761719 142.683594 C 576.488281 142.644531 599.222656 142.5625 621.941406 142.964844 C 638.980469 143.265625 655.996094 144.578125 673.035156 144.957031 C 696.890625 145.488281 720.757812 145.566406 744.617188 145.832031 C 745.421875 145.839844 746.230469 145.75 747.199219 145.699219 C 747.28125 145.136719 747.351562 144.925781 747.335938 144.726562 Z M 650.699219 139.628906 C 647.164062 139.574219 646.5 138.90625 646.539062 135.4375 C 646.644531 126.46875 646.785156 117.5 646.976562 108.535156 C 647.050781 105.195312 647.863281 104.210938 651.226562 104.140625 C 660.300781 103.945312 669.378906 103.851562 678.457031 103.925781 C 682.175781 103.953125 682.886719 104.972656 682.976562 108.640625 C 683.167969 116.371094 683.394531 124.097656 683.59375 131.828125 C 683.632812 133.269531 683.679688 134.71875 683.621094 136.160156 C 683.53125 138.359375 682.898438 139.097656 680.71875 139.425781 C 679.5 139.609375 678.25 139.621094 677.011719 139.628906 C 672.886719 139.652344 668.757812 139.636719 664.628906 139.636719 C 664.628906 139.640625 664.628906 139.644531 664.628906 139.644531 C 659.984375 139.644531 655.339844 139.699219 650.699219 139.628906 Z M 726.121094 103.5625 C 729.855469 103.605469 730.5625 104.378906 730.84375 108.082031 C 731.4375 115.890625 732.089844 123.691406 732.6875 131.5 C 732.796875 132.9375 732.820312 134.386719 732.769531 135.828125 C 732.664062 138.953125 731.820312 139.898438 728.726562 140.117188 C 725.335938 140.355469 721.929688 140.515625 718.527344 140.558594 C 712.234375 140.636719 705.945312 140.613281 699.652344 140.621094 C 699.035156 140.621094 698.414062 140.554688 697.800781 140.46875 C 695.171875 140.117188 694.523438 139.6875 694.191406 137.085938 C 693.5625 132.1875 693.027344 127.265625 692.691406 122.339844 C 692.375 117.714844 692.289062 113.070312 692.238281 108.433594 C 692.195312 104.144531 692.585938 103.714844 697.03125 103.597656 C 701.875 103.464844 706.726562 103.566406 711.574219 103.566406 C 711.574219 103.5625 711.574219 103.554688 711.574219 103.550781 C 716.425781 103.550781 721.273438 103.511719 726.121094 103.5625 Z M 628.488281 101.609375 C 629.519531 101.613281 630.554688 101.617188 631.578125 101.714844 C 634.28125 101.972656 634.953125 102.707031 634.964844 105.441406 C 634.984375 109.667969 634.953125 113.890625 634.964844 118.113281 C 634.976562 122.644531 635.019531 127.179688 635.039062 131.710938 C 635.042969 132.636719 635.066406 133.570312 634.96875 134.488281 C 634.726562 136.789062 634.382812 137.195312 632.101562 137.246094 C 626.640625 137.371094 621.175781 137.527344 615.71875 137.414062 C 610.777344 137.308594 605.84375 136.871094 600.910156 136.570312 C 598.324219 136.410156 597.667969 135.816406 597.578125 133.175781 C 597.425781 128.542969 597.398438 123.910156 597.285156 119.277344 C 597.1875 115.164062 597.011719 111.058594 596.929688 106.945312 C 596.847656 102.609375 597.328125 102.074219 601.582031 102.019531 C 606.425781 101.957031 611.273438 102.007812 616.117188 102.007812 C 616.117188 101.875 616.117188 101.738281 616.117188 101.605469 C 620.242188 101.605469 624.363281 101.601562 628.488281 101.609375 Z M 741.039062 690.339844 C 726.925781 691.351562 712.824219 692.472656 698.707031 693.363281 C 686.027344 694.164062 673.328125 694.644531 660.644531 695.394531 C 638.671875 696.6875 616.683594 697.714844 594.679688 697.613281 C 570.820312 697.503906 546.960938 696.875 523.105469 696.3125 C 497.691406 695.707031 472.28125 695.699219 446.867188 696.183594 C 430.546875 696.492188 414.222656 696.746094 397.898438 696.707031 C 343.867188 696.582031 289.839844 695.855469 235.820312 697.929688 C 220.246094 698.523438 204.621094 698.242188 189.027344 697.886719 C 166.308594 697.371094 143.597656 696.433594 120.882812 695.660156 C 113.863281 695.417969 106.847656 695.0625 99.824219 694.886719 C 89.5 694.632812 79.171875 694.488281 68.84375 694.324219 C 68.074219 694.3125 67.300781 694.527344 66.363281 694.660156 C 66.664062 695.914062 66.855469 696.921875 67.148438 697.898438 C 68.964844 704.035156 72.773438 708.140625 79.183594 709.5 C 81.503906 709.988281 83.84375 710.5625 86.199219 710.683594 C 94.34375 711.109375 102.5 711.480469 110.65625 711.632812 C 137.511719 712.136719 164.367188 712.480469 191.222656 713 C 210.539062 713.371094 229.847656 714.207031 249.164062 714.332031 C 273.542969 714.488281 297.921875 714.058594 322.300781 714.019531 C 338.832031 713.992188 355.359375 714.289062 371.890625 714.289062 C 423.546875 714.28125 475.203125 714.371094 526.855469 715.296875 C 550.921875 715.730469 574.980469 716.597656 599.0625 715.867188 C 620.429688 715.222656 641.824219 715.894531 663.191406 714.5 C 679.164062 713.460938 695.191406 713.15625 711.09375 711.179688 C 717.433594 710.394531 723.8125 709.554688 730.019531 708.089844 C 738.246094 706.148438 743.105469 699.230469 743.128906 690.335938 C 742.433594 690.335938 741.734375 690.292969 741.039062 690.339844 Z M 679.601562 115.3125 C 669.722656 115.582031 660.1875 115.839844 650.359375 116.101562 C 650.175781 122.609375 649.992188 129.128906 649.804688 135.847656 C 660.136719 135.847656 670.082031 135.847656 680.386719 135.847656 C 680.117188 128.851562 679.867188 122.210938 679.601562 115.3125 Z M 650.359375 107.894531 C 650.449219 109.734375 650.519531 111.191406 650.585938 112.605469 C 660.273438 113.023438 676.976562 112.550781 679.304688 111.816406 C 679.304688 110.605469 679.304688 109.390625 679.304688 107.738281 C 669.519531 107.195312 660.09375 107.574219 650.359375 107.894531 Z M 726.875 107.589844 C 716.6875 107.589844 706.507812 107.589844 696.007812 107.589844 C 696.195312 117.339844 696.238281 126.875 697.695312 136.480469 C 708.222656 137.390625 718.5 136.523438 728.898438 136.414062 C 729.382812 133.535156 727.609375 109.589844 726.875 107.589844 Z M 705.441406 118.835938 C 704.328125 117.910156 702.5 117.230469 703.230469 115.257812 C 703.601562 114.253906 705.011719 114.648438 707.199219 116.359375 C 709.144531 117.878906 711.066406 119.433594 713.027344 120.992188 C 716.15625 119.105469 717.511719 115.222656 721.414062 114.046875 C 721.957031 116.539062 720.15625 117.441406 719.140625 118.703125 C 718.109375 119.984375 716.984375 121.1875 715.695312 122.65625 C 717.652344 124.179688 719.511719 125.59375 721.328125 127.058594 C 722.125 127.699219 722.882812 128.40625 723.558594 129.171875 C 723.757812 129.398438 723.792969 130.09375 723.609375 130.265625 C 723.292969 130.5625 722.65625 130.855469 722.320312 130.722656 C 721.472656 130.386719 720.683594 129.863281 719.933594 129.324219 C 717.925781 127.886719 715.953125 126.398438 713.839844 124.835938 C 712.011719 126.488281 710.308594 128.105469 708.527344 129.625 C 707.433594 130.558594 706.273438 131.449219 705.027344 132.15625 C 704.535156 132.441406 703.730469 132.183594 703.066406 132.171875 C 703.207031 131.441406 703.164062 130.59375 703.539062 130.019531 C 703.96875 129.359375 704.789062 128.964844 705.402344 128.414062 C 707.234375 126.757812 709.046875 125.078125 711.121094 123.175781 C 709.023438 121.585938 707.179688 120.277344 705.441406 118.835938 Z M 631.515625 105.726562 C 620.960938 105.726562 610.695312 105.726562 600.242188 105.726562 C 601.207031 114.984375 599.335938 123.933594 600.851562 133.261719 C 611.058594 133.515625 621.222656 133.769531 631.515625 134.023438 C 631.515625 124.285156 631.515625 114.984375 631.515625 105.726562 Z M 623.308594 121.730469 C 624.121094 121.742188 624.96875 121.792969 625.730469 122.042969 C 626.125 122.171875 626.632812 122.789062 626.609375 123.152344 C 626.574219 123.671875 626.210938 124.417969 625.785156 124.613281 C 624.964844 124.984375 624 125.207031 623.097656 125.195312 C 617.832031 125.128906 612.570312 124.980469 607.304688 124.847656 C 606.347656 124.820312 605.253906 124.683594 605.195312 123.511719 C 605.121094 122.046875 606.269531 121.65625 607.503906 121.648438 C 610.398438 121.621094 613.289062 121.640625 616.179688 121.640625 C 616.179688 121.664062 616.179688 121.691406 616.179688 121.71875 C 618.554688 121.71875 620.933594 121.695312 623.308594 121.730469 Z M 391.113281 717.847656 C 377.476562 717.847656 363.835938 717.792969 350.199219 717.863281 C 330.574219 717.964844 310.945312 718.292969 291.316406 718.273438 C 272.722656 718.253906 254.128906 717.960938 235.539062 717.695312 C 215.085938 717.402344 194.632812 717.03125 174.183594 716.640625 C 147.121094 716.125 120.058594 715.636719 93 714.949219 C 88.078125 714.824219 83.121094 714.09375 78.28125 713.121094 C 70.578125 711.574219 65.824219 706.597656 63.648438 699.132812 C 61.617188 692.164062 60.761719 684.984375 60.0625 677.789062 C 57.832031 654.835938 58.035156 631.804688 58.09375 608.789062 C 58.175781 574.933594 58.386719 541.074219 59.007812 507.226562 C 59.464844 482.136719 59.253906 457.066406 59.164062 431.980469 C 59.050781 400.707031 59.527344 369.433594 59.898438 338.160156 C 60.25 308.847656 60.878906 279.535156 61.242188 250.222656 C 61.597656 221.21875 61.722656 192.210938 62.054688 163.207031 C 62.21875 148.757812 62.570312 134.3125 62.941406 119.867188 C 63.054688 115.535156 63.472656 111.210938 63.839844 106.894531 C 64.253906 102.078125 66.621094 98.640625 71.464844 97.539062 C 76.789062 96.328125 82.152344 95.113281 87.566406 94.496094 C 101.3125 92.929688 115.085938 91.558594 128.871094 90.363281 C 142.570312 89.179688 156.316406 89.355469 170.058594 89.582031 C 194.433594 89.988281 218.8125 90.359375 243.191406 90.746094 C 259.824219 91.007812 276.453125 91.480469 293.085938 91.480469 C 318.1875 91.480469 343.289062 91.101562 368.394531 90.964844 C 395.148438 90.824219 421.90625 90.589844 448.660156 90.769531 C 460.21875 90.847656 471.769531 91.824219 483.320312 92.464844 C 500.15625 93.402344 516.988281 92.65625 533.824219 92.445312 C 560.269531 92.113281 586.71875 91.953125 613.164062 91.75 C 633.308594 91.59375 653.457031 91.222656 673.597656 91.46875 C 684.421875 91.601562 695.230469 92.863281 706.046875 93.566406 C 711.097656 93.894531 716.15625 94.113281 721.210938 94.371094 C 725.023438 94.570312 728.847656 94.652344 732.65625 94.96875 C 742.230469 95.757812 747.894531 101.390625 748.753906 110.984375 C 749.636719 120.851562 750.699219 130.710938 751.1875 140.601562 C 751.910156 155.132812 752.542969 169.683594 752.578125 184.226562 C 752.632812 205.796875 752.160156 227.367188 751.867188 248.9375 C 751.46875 278.148438 751.085938 307.359375 750.585938 336.566406 C 750.222656 357.828125 749.429688 379.082031 749.285156 400.34375 C 749.113281 425.320312 749.480469 450.300781 749.523438 475.28125 C 749.5625 497.992188 749.40625 520.699219 749.460938 543.410156 C 749.542969 576.335938 749.804688 609.265625 749.847656 642.191406 C 749.867188 656.957031 749.4375 671.722656 747.484375 686.378906 C 746.890625 690.84375 745.804688 695.304688 744.390625 699.585938 C 742.378906 705.65625 738.054688 709.53125 731.8125 711.351562 C 725.027344 713.335938 718.0625 714.125 711.09375 714.984375 C 690.355469 717.53125 669.476562 718.015625 648.648438 719.0625 C 635.347656 719.730469 621.996094 719.277344 608.671875 719.585938 C 563.410156 720.640625 518.179688 718.691406 472.933594 718.402344 C 445.660156 718.230469 418.386719 718.371094 391.113281 718.371094 C 391.113281 718.195312 391.113281 718.023438 391.113281 717.847656 Z M 744.019531 686.550781 C 744.199219 685.097656 744.347656 684.089844 744.441406 683.074219 C 745.921875 666.917969 746.289062 650.734375 746.167969 634.515625 C 745.929688 603.035156 745.835938 571.554688 745.722656 540.074219 C 745.636719 514.992188 745.582031 489.914062 745.558594 464.832031 C 745.535156 438.203125 745.386719 411.570312 745.609375 384.945312 C 745.875 353.570312 746.476562 322.199219 746.9375 290.824219 C 747.015625 285.355469 747.085938 279.882812 747.207031 274.414062 C 748.089844 234.691406 749.332031 194.964844 747.917969 155.226562 C 747.851562 153.398438 747.691406 151.578125 747.570312 149.628906 C 746.605469 149.585938 745.902344 149.523438 745.195312 149.523438 C 737.035156 149.53125 728.871094 149.6875 720.710938 149.542969 C 698.921875 149.15625 677.128906 148.742188 655.34375 148.148438 C 640.167969 147.738281 625.003906 146.746094 609.824219 146.496094 C 591.855469 146.199219 573.875 146.386719 555.902344 146.425781 C 506.417969 146.53125 456.933594 146.691406 407.449219 146.78125 C 392.164062 146.808594 376.875 146.691406 361.585938 146.621094 C 349.191406 146.566406 336.792969 146.539062 324.398438 146.394531 C 298.574219 146.089844 272.753906 145.632812 246.929688 145.417969 C 235.464844 145.324219 224 145.65625 212.53125 145.796875 C 207.367188 145.859375 202.203125 145.847656 197.039062 145.992188 C 180.621094 146.453125 164.210938 147.105469 147.789062 147.429688 C 133.640625 147.710938 119.488281 147.660156 105.332031 147.734375 C 92.835938 147.804688 80.339844 147.84375 67.84375 147.910156 C 67.464844 147.910156 67.089844 148.097656 66.578125 148.230469 C 66.515625 149.445312 66.417969 150.5625 66.402344 151.679688 C 66.171875 168.5 65.90625 185.324219 65.730469 202.148438 C 65.390625 235.175781 65.453125 268.210938 64.703125 301.226562 C 63.800781 340.855469 62.824219 380.476562 62.972656 420.117188 C 63.09375 450.976562 63.589844 481.832031 62.761719 512.695312 C 61.609375 555.519531 61.648438 598.359375 62.148438 641.195312 C 62.328125 656.574219 62.847656 671.945312 64.992188 687.210938 C 65.144531 688.285156 65.460938 689.332031 65.707031 690.4375 C 67.058594 690.4375 68.082031 690.425781 69.105469 690.441406 C 77.160156 690.539062 85.214844 690.582031 93.269531 690.765625 C 99.773438 690.914062 106.273438 691.265625 112.777344 691.484375 C 134.042969 692.207031 155.316406 692.816406 176.578125 693.644531 C 200.648438 694.582031 224.710938 694.339844 248.777344 693.753906 C 266.640625 693.316406 284.503906 692.632812 302.371094 692.566406 C 336.773438 692.4375 371.175781 692.714844 405.574219 692.722656 C 417.765625 692.726562 429.953125 692.386719 442.140625 692.289062 C 460.324219 692.144531 478.507812 691.824219 496.683594 692.027344 C 519.507812 692.285156 542.332031 692.933594 565.152344 693.519531 C 603.09375 694.496094 640.957031 692.5625 678.816406 690.527344 C 692.015625 689.816406 705.21875 689.109375 718.417969 688.316406 C 726.863281 687.8125 735.296875 687.15625 744.019531 686.550781 Z M 747.199219 145.699219 C 747.28125 145.136719 747.351562 144.925781 747.335938 144.726562 C 746.347656 133.421875 745.402344 122.109375 744.304688 110.8125 C 744.128906 109.011719 743.453125 107.183594 742.667969 105.53125 C 740.964844 101.949219 738.152344 99.679688 734.09375 99.230469 C 731.9375 98.992188 729.78125 98.753906 727.617188 98.640625 C 721.121094 98.296875 714.585938 98.320312 708.125 97.648438 C 690.429688 95.796875 672.699219 94.960938 654.917969 95.121094 C 619.898438 95.4375 584.875 95.746094 549.855469 96.152344 C 538.082031 96.285156 526.300781 96.46875 514.542969 97.0625 C 503.78125 97.609375 493.046875 97.519531 482.347656 96.605469 C 466.796875 95.273438 451.234375 94.136719 435.632812 94.207031 C 414.457031 94.296875 393.28125 94.773438 372.105469 95.03125 C 349.070312 95.3125 326.03125 95.835938 302.996094 95.703125 C 268.703125 95.503906 234.40625 94.828125 200.113281 94.347656 C 194.949219 94.273438 189.785156 94.171875 184.621094 94.046875 C 167.890625 93.644531 151.152344 92.886719 134.441406 94.195312 C 119.515625 95.359375 104.605469 96.738281 89.707031 98.242188 C 84.277344 98.789062 78.878906 99.800781 73.53125 100.929688 C 69.183594 101.851562 68.382812 103.011719 67.847656 107.457031 C 66.402344 119.378906 66.722656 131.359375 66.683594 143.324219 C 66.683594 143.609375 66.859375 143.890625 67.054688 144.488281 C 68 144.488281 69.003906 144.5 70.007812 144.488281 C 79.71875 144.363281 89.429688 144.226562 99.136719 144.109375 C 123 143.816406 146.871094 143.863281 170.71875 143.167969 C 207.488281 142.101562 244.253906 141.761719 281.035156 142.164062 C 324.417969 142.636719 367.808594 142.988281 411.195312 143.054688 C 458.71875 143.125 506.242188 142.765625 553.761719 142.683594 C 576.488281 142.644531 599.222656 142.5625 621.941406 142.964844 C 638.980469 143.265625 655.996094 144.578125 673.035156 144.957031 C 696.890625 145.488281 720.757812 145.566406 744.617188 145.832031 C 745.421875 145.839844 746.230469 145.75 747.199219 145.699219 Z M 743.128906 690.335938 C 742.433594 690.335938 741.734375 690.292969 741.039062 690.339844 C 726.925781 691.351562 712.824219 692.472656 698.707031 693.363281 C 686.027344 694.164062 673.328125 694.644531 660.644531 695.394531 C 638.671875 696.6875 616.683594 697.714844 594.679688 697.613281 C 570.820312 697.503906 546.960938 696.875 523.105469 696.3125 C 497.691406 695.707031 472.28125 695.699219 446.867188 696.183594 C 430.546875 696.492188 414.222656 696.746094 397.898438 696.707031 C 343.867188 696.582031 289.839844 695.855469 235.820312 697.929688 C 220.246094 698.523438 204.621094 698.242188 189.027344 697.886719 C 166.308594 697.371094 143.597656 696.433594 120.882812 695.660156 C 113.863281 695.417969 106.847656 695.0625 99.824219 694.886719 C 89.5 694.632812 79.171875 694.488281 68.84375 694.324219 C 68.074219 694.3125 67.300781 694.527344 66.363281 694.660156 C 66.664062 695.914062 66.855469 696.921875 67.148438 697.898438 C 68.964844 704.035156 72.773438 708.140625 79.183594 709.5 C 81.503906 709.988281 83.84375 710.5625 86.199219 710.683594 C 94.34375 711.109375 102.5 711.480469 110.65625 711.632812 C 137.511719 712.136719 164.367188 712.480469 191.222656 713 C 210.539062 713.371094 229.847656 714.207031 249.164062 714.332031 C 273.542969 714.488281 297.921875 714.058594 322.300781 714.019531 C 338.832031 713.992188 355.359375 714.289062 371.890625 714.289062 C 423.546875 714.28125 475.203125 714.371094 526.855469 715.296875 C 550.921875 715.730469 574.980469 716.597656 599.0625 715.867188 C 620.429688 715.222656 641.824219 715.894531 663.191406 714.5 C 679.164062 713.460938 695.191406 713.15625 711.09375 711.179688 C 717.433594 710.394531 723.8125 709.554688 730.019531 708.089844 C 738.246094 706.148438 743.105469 699.230469 743.128906 690.335938 Z M 664.628906 139.644531 C 659.984375 139.644531 655.339844 139.699219 650.699219 139.628906 C 647.164062 139.574219 646.5 138.90625 646.539062 135.4375 C 646.644531 126.46875 646.785156 117.5 646.976562 108.535156 C 647.050781 105.195312 647.863281 104.210938 651.226562 104.140625 C 660.300781 103.945312 669.378906 103.851562 678.457031 103.925781 C 682.175781 103.953125 682.886719 104.972656 682.976562 108.640625 C 683.167969 116.371094 683.394531 124.097656 683.59375 131.828125 C 683.632812 133.269531 683.679688 134.71875 683.621094 136.160156 C 683.53125 138.359375 682.898438 139.097656 680.71875 139.425781 C 679.5 139.609375 678.25 139.621094 677.011719 139.628906 C 672.886719 139.652344 668.757812 139.636719 664.628906 139.636719 C 664.628906 139.640625 664.628906 139.644531 664.628906 139.644531 Z M 680.386719 135.847656 C 680.117188 128.851562 679.867188 122.210938 679.601562 115.3125 C 669.722656 115.582031 660.1875 115.839844 650.359375 116.101562 C 650.175781 122.609375 649.992188 129.128906 649.804688 135.847656 C 660.136719 135.847656 670.082031 135.847656 680.386719 135.847656 Z M 679.304688 107.738281 C 669.519531 107.195312 660.09375 107.574219 650.359375 107.894531 C 650.449219 109.734375 650.519531 111.191406 650.585938 112.605469 C 660.273438 113.023438 676.976562 112.550781 679.304688 111.816406 C 679.304688 110.605469 679.304688 109.390625 679.304688 107.738281 Z M 711.574219 103.550781 C 716.425781 103.550781 721.273438 103.511719 726.121094 103.5625 C 729.855469 103.605469 730.5625 104.378906 730.84375 108.082031 C 731.4375 115.890625 732.089844 123.691406 732.6875 131.5 C 732.796875 132.9375 732.820312 134.386719 732.769531 135.828125 C 732.664062 138.953125 731.820312 139.898438 728.726562 140.117188 C 725.335938 140.355469 721.929688 140.515625 718.527344 140.558594 C 712.234375 140.636719 705.945312 140.613281 699.652344 140.621094 C 699.035156 140.621094 698.414062 140.554688 697.800781 140.46875 C 695.171875 140.117188 694.523438 139.6875 694.191406 137.085938 C 693.5625 132.1875 693.027344 127.265625 692.691406 122.339844 C 692.375 117.714844 692.289062 113.070312 692.238281 108.433594 C 692.195312 104.144531 692.585938 103.714844 697.03125 103.597656 C 701.875 103.464844 706.726562 103.566406 711.574219 103.566406 C 711.574219 103.5625 711.574219 103.554688 711.574219 103.550781 Z M 728.898438 136.414062 C 729.382812 133.535156 727.609375 109.589844 726.875 107.589844 C 716.6875 107.589844 706.507812 107.589844 696.007812 107.589844 C 696.195312 117.339844 696.238281 126.875 697.695312 136.480469 C 708.222656 137.390625 718.5 136.523438 728.898438 136.414062 Z M 616.117188 101.605469 C 620.242188 101.605469 624.363281 101.601562 628.488281 101.609375 C 629.519531 101.613281 630.554688 101.617188 631.578125 101.714844 C 634.28125 101.972656 634.953125 102.707031 634.964844 105.441406 C 634.984375 109.667969 634.953125 113.890625 634.964844 118.113281 C 634.976562 122.644531 635.019531 127.179688 635.039062 131.710938 C 635.042969 132.636719 635.066406 133.570312 634.96875 134.488281 C 634.726562 136.789062 634.382812 137.195312 632.101562 137.246094 C 626.640625 137.371094 621.175781 137.527344 615.71875 137.414062 C 610.777344 137.308594 605.84375 136.871094 600.910156 136.570312 C 598.324219 136.410156 597.667969 135.816406 597.578125 133.175781 C 597.425781 128.542969 597.398438 123.910156 597.285156 119.277344 C 597.1875 115.164062 597.011719 111.058594 596.929688 106.945312 C 596.847656 102.609375 597.328125 102.074219 601.582031 102.019531 C 606.425781 101.957031 611.273438 102.007812 616.117188 102.007812 C 616.117188 101.875 616.117188 101.738281 616.117188 101.605469 Z M 631.515625 134.023438 C 631.515625 124.285156 631.515625 114.984375 631.515625 105.726562 C 620.960938 105.726562 610.695312 105.726562 600.242188 105.726562 C 601.207031 114.984375 599.335938 123.933594 600.851562 133.261719 C 611.058594 133.515625 621.222656 133.769531 631.515625 134.023438 Z M 705.402344 128.414062 C 704.789062 128.964844 703.96875 129.359375 703.539062 130.019531 C 703.164062 130.59375 703.207031 131.441406 703.066406 132.171875 C 703.730469 132.183594 704.535156 132.441406 705.027344 132.15625 C 706.273438 131.449219 707.433594 130.558594 708.527344 129.625 C 710.308594 128.105469 712.011719 126.488281 713.839844 124.835938 C 715.953125 126.398438 717.925781 127.886719 719.933594 129.324219 C 720.683594 129.863281 721.472656 130.386719 722.320312 130.722656 C 722.65625 130.855469 723.292969 130.5625 723.609375 130.265625 C 723.792969 130.09375 723.757812 129.398438 723.558594 129.171875 C 722.882812 128.40625 722.125 127.699219 721.328125 127.058594 C 719.511719 125.59375 717.652344 124.179688 715.695312 122.65625 C 716.984375 121.1875 718.109375 119.984375 719.140625 118.703125 C 720.15625 117.441406 721.957031 116.539062 721.414062 114.046875 C 717.511719 115.222656 716.15625 119.105469 713.027344 120.992188 C 711.066406 119.433594 709.144531 117.878906 707.199219 116.359375 C 705.011719 114.648438 703.601562 114.253906 703.230469 115.257812 C 702.5 117.230469 704.328125 117.910156 705.441406 118.835938 C 707.179688 120.277344 709.023438 121.585938 711.121094 123.175781 C 709.046875 125.078125 707.234375 126.757812 705.402344 128.414062 Z M 616.179688 121.640625 C 613.289062 121.640625 610.398438 121.621094 607.503906 121.648438 C 606.269531 121.65625 605.121094 122.046875 605.195312 123.511719 C 605.253906 124.683594 606.347656 124.820312 607.304688 124.847656 C 612.570312 124.980469 617.832031 125.128906 623.097656 125.195312 C 624 125.207031 624.964844 124.984375 625.785156 124.613281 C 626.210938 124.417969 626.574219 123.671875 626.609375 123.152344 C 626.632812 122.789062 626.125 122.171875 625.730469 122.042969 C 624.96875 121.792969 624.121094 121.742188 623.308594 121.730469 C 620.933594 121.695312 618.554688 121.71875 616.179688 121.71875 C 616.179688 121.691406 616.179688 121.664062 616.179688 121.640625 Z M 616.179688 121.640625 " fill-opacity="1" fill-rule="nonzero"/></g><path fill="#000000" d="M 744.019531 686.550781 C 735.296875 687.15625 726.863281 687.8125 718.417969 688.316406 C 705.21875 689.109375 692.015625 689.816406 678.816406 690.527344 C 640.957031 692.5625 603.09375 694.496094 565.152344 693.519531 C 542.332031 692.933594 519.507812 692.285156 496.683594 692.027344 C 478.507812 691.824219 460.324219 692.144531 442.140625 692.289062 C 429.953125 692.386719 417.765625 692.726562 405.574219 692.722656 C 371.175781 692.714844 336.773438 692.4375 302.371094 692.566406 C 284.503906 692.632812 266.640625 693.316406 248.777344 693.753906 C 224.710938 694.339844 200.648438 694.582031 176.578125 693.644531 C 155.316406 692.816406 134.042969 692.207031 112.777344 691.484375 C 106.273438 691.265625 99.773438 690.914062 93.269531 690.765625 C 85.214844 690.582031 77.160156 690.539062 69.105469 690.441406 C 68.082031 690.425781 67.058594 690.4375 65.707031 690.4375 C 65.460938 689.332031 65.144531 688.285156 64.992188 687.210938 C 62.847656 671.945312 62.328125 656.574219 62.148438 641.195312 C 61.648438 598.359375 61.609375 555.519531 62.761719 512.695312 C 63.589844 481.832031 63.09375 450.976562 62.972656 420.117188 C 62.824219 380.476562 63.800781 340.855469 64.703125 301.226562 C 65.453125 268.210938 65.390625 235.175781 65.730469 202.148438 C 65.90625 185.324219 66.171875 168.5 66.402344 151.679688 C 66.417969 150.5625 66.515625 149.445312 66.578125 148.230469 C 67.089844 148.097656 67.464844 147.910156 67.84375 147.910156 C 80.339844 147.84375 92.835938 147.804688 105.332031 147.734375 C 119.488281 147.660156 133.640625 147.710938 147.789062 147.429688 C 164.210938 147.105469 180.621094 146.453125 197.039062 145.992188 C 202.203125 145.847656 207.367188 145.859375 212.53125 145.796875 C 224 145.65625 235.464844 145.324219 246.929688 145.417969 C 272.753906 145.632812 298.574219 146.089844 324.398438 146.394531 C 336.792969 146.539062 349.191406 146.566406 361.585938 146.621094 C 376.875 146.691406 392.164062 146.808594 407.449219 146.78125 C 456.933594 146.691406 506.417969 146.53125 555.902344 146.425781 C 573.875 146.386719 591.855469 146.199219 609.824219 146.496094 C 625.003906 146.746094 640.167969 147.738281 655.34375 148.148438 C 677.128906 148.742188 698.921875 149.15625 720.710938 149.542969 C 728.871094 149.6875 737.035156 149.53125 745.195312 149.523438 C 745.902344 149.523438 746.605469 149.585938 747.570312 149.628906 C 747.691406 151.578125 747.851562 153.398438 747.917969 155.226562 C 749.332031 194.964844 748.089844 234.691406 747.207031 274.414062 C 747.085938 279.882812 747.015625 285.355469 746.9375 290.824219 C 746.476562 322.199219 745.875 353.570312 745.609375 384.945312 C 745.386719 411.570312 745.535156 438.203125 745.558594 464.832031 C 745.582031 489.914062 745.636719 514.992188 745.722656 540.074219 C 745.835938 571.554688 745.929688 603.035156 746.167969 634.515625 C 746.289062 650.734375 745.921875 666.917969 744.441406 683.074219 C 744.347656 684.089844 744.199219 685.097656 744.019531 686.550781 Z M 747.335938 144.726562 C 746.347656 133.421875 745.402344 122.109375 744.304688 110.8125 C 744.128906 109.011719 743.453125 107.183594 742.667969 105.53125 C 740.964844 101.949219 738.152344 99.679688 734.09375 99.230469 C 731.9375 98.992188 729.78125 98.753906 727.617188 98.640625 C 721.121094 98.296875 714.585938 98.320312 708.125 97.648438 C 690.429688 95.796875 672.699219 94.960938 654.917969 95.121094 C 619.898438 95.4375 584.875 95.746094 549.855469 96.152344 C 538.082031 96.285156 526.300781 96.46875 514.542969 97.0625 C 503.78125 97.609375 493.046875 97.519531 482.347656 96.605469 C 466.796875 95.273438 451.234375 94.136719 435.632812 94.207031 C 414.457031 94.296875 393.28125 94.773438 372.105469 95.03125 C 349.070312 95.3125 326.03125 95.835938 302.996094 95.703125 C 268.703125 95.503906 234.40625 94.828125 200.113281 94.347656 C 194.949219 94.273438 189.785156 94.171875 184.621094 94.046875 C 167.890625 93.644531 151.152344 92.886719 134.441406 94.195312 C 119.515625 95.359375 104.605469 96.738281 89.707031 98.242188 C 84.277344 98.789062 78.878906 99.800781 73.53125 100.929688 C 69.183594 101.851562 68.382812 103.011719 67.847656 107.457031 C 66.402344 119.378906 66.722656 131.359375 66.683594 143.324219 C 66.683594 143.609375 66.859375 143.890625 67.054688 144.488281 C 68 144.488281 69.003906 144.5 70.007812 144.488281 C 79.71875 144.363281 89.429688 144.226562 99.136719 144.109375 C 123 143.816406 146.871094 143.863281 170.71875 143.167969 C 207.488281 142.101562 244.253906 141.761719 281.035156 142.164062 C 324.417969 142.636719 367.808594 142.988281 411.195312 143.054688 C 458.71875 143.125 506.242188 142.765625 553.761719 142.683594 C 576.488281 142.644531 599.222656 142.5625 621.941406 142.964844 C 638.980469 143.265625 655.996094 144.578125 673.035156 144.957031 C 696.890625 145.488281 720.757812 145.566406 744.617188 145.832031 C 745.421875 145.839844 746.230469 145.75 747.199219 145.699219 C 747.28125 145.136719 747.351562 144.925781 747.335938 144.726562 Z M 650.699219 139.628906 C 647.164062 139.574219 646.5 138.90625 646.539062 135.4375 C 646.644531 126.46875 646.785156 117.5 646.976562 108.535156 C 647.050781 105.195312 647.863281 104.210938 651.226562 104.140625 C 660.300781 103.945312 669.378906 103.851562 678.457031 103.925781 C 682.175781 103.953125 682.886719 104.972656 682.976562 108.640625 C 683.167969 116.371094 683.394531 124.097656 683.59375 131.828125 C 683.632812 133.269531 683.679688 134.71875 683.621094 136.160156 C 683.53125 138.359375 682.898438 139.097656 680.71875 139.425781 C 679.5 139.609375 678.25 139.621094 677.011719 139.628906 C 672.886719 139.652344 668.757812 139.636719 664.628906 139.636719 C 664.628906 139.640625 664.628906 139.644531 664.628906 139.644531 C 659.984375 139.644531 655.339844 139.699219 650.699219 139.628906 Z M 726.121094 103.5625 C 729.855469 103.605469 730.5625 104.378906 730.84375 108.082031 C 731.4375 115.890625 732.089844 123.691406 732.6875 131.5 C 732.796875 132.9375 732.820312 134.386719 732.769531 135.828125 C 732.664062 138.953125 731.820312 139.898438 728.726562 140.117188 C 725.335938 140.355469 721.929688 140.515625 718.527344 140.558594 C 712.234375 140.636719 705.945312 140.613281 699.652344 140.621094 C 699.035156 140.621094 698.414062 140.554688 697.800781 140.46875 C 695.171875 140.117188 694.523438 139.6875 694.191406 137.085938 C 693.5625 132.1875 693.027344 127.265625 692.691406 122.339844 C 692.375 117.714844 692.289062 113.070312 692.238281 108.433594 C 692.195312 104.144531 692.585938 103.714844 697.03125 103.597656 C 701.875 103.464844 706.726562 103.566406 711.574219 103.566406 C 711.574219 103.5625 711.574219 103.554688 711.574219 103.550781 C 716.425781 103.550781 721.273438 103.511719 726.121094 103.5625 Z M 628.488281 101.609375 C 629.519531 101.613281 630.554688 101.617188 631.578125 101.714844 C 634.28125 101.972656 634.953125 102.707031 634.964844 105.441406 C 634.984375 109.667969 634.953125 113.890625 634.964844 118.113281 C 634.976562 122.644531 635.019531 127.179688 635.039062 131.710938 C 635.042969 132.636719 635.066406 133.570312 634.96875 134.488281 C 634.726562 136.789062 634.382812 137.195312 632.101562 137.246094 C 626.640625 137.371094 621.175781 137.527344 615.71875 137.414062 C 610.777344 137.308594 605.84375 136.871094 600.910156 136.570312 C 598.324219 136.410156 597.667969 135.816406 597.578125 133.175781 C 597.425781 128.542969 597.398438 123.910156 597.285156 119.277344 C 597.1875 115.164062 597.011719 111.058594 596.929688 106.945312 C 596.847656 102.609375 597.328125 102.074219 601.582031 102.019531 C 606.425781 101.957031 611.273438 102.007812 616.117188 102.007812 C 616.117188 101.875 616.117188 101.738281 616.117188 101.605469 C 620.242188 101.605469 624.363281 101.601562 628.488281 101.609375 Z M 741.039062 690.339844 C 726.925781 691.351562 712.824219 692.472656 698.707031 693.363281 C 686.027344 694.164062 673.328125 694.644531 660.644531 695.394531 C 638.671875 696.6875 616.683594 697.714844 594.679688 697.613281 C 570.820312 697.503906 546.960938 696.875 523.105469 696.3125 C 497.691406 695.707031 472.28125 695.699219 446.867188 696.183594 C 430.546875 696.492188 414.222656 696.746094 397.898438 696.707031 C 343.867188 696.582031 289.839844 695.855469 235.820312 697.929688 C 220.246094 698.523438 204.621094 698.242188 189.027344 697.886719 C 166.308594 697.371094 143.597656 696.433594 120.882812 695.660156 C 113.863281 695.417969 106.847656 695.0625 99.824219 694.886719 C 89.5 694.632812 79.171875 694.488281 68.84375 694.324219 C 68.074219 694.3125 67.300781 694.527344 66.363281 694.660156 C 66.664062 695.914062 66.855469 696.921875 67.148438 697.898438 C 68.964844 704.035156 72.773438 708.140625 79.183594 709.5 C 81.503906 709.988281 83.84375 710.5625 86.199219 710.683594 C 94.34375 711.109375 102.5 711.480469 110.65625 711.632812 C 137.511719 712.136719 164.367188 712.480469 191.222656 713 C 210.539062 713.371094 229.847656 714.207031 249.164062 714.332031 C 273.542969 714.488281 297.921875 714.058594 322.300781 714.019531 C 338.832031 713.992188 355.359375 714.289062 371.890625 714.289062 C 423.546875 714.28125 475.203125 714.371094 526.855469 715.296875 C 550.921875 715.730469 574.980469 716.597656 599.0625 715.867188 C 620.429688 715.222656 641.824219 715.894531 663.191406 714.5 C 679.164062 713.460938 695.191406 713.15625 711.09375 711.179688 C 717.433594 710.394531 723.8125 709.554688 730.019531 708.089844 C 738.246094 706.148438 743.105469 699.230469 743.128906 690.335938 C 742.433594 690.335938 741.734375 690.292969 741.039062 690.339844 Z M 679.601562 115.3125 C 669.722656 115.582031 660.1875 115.839844 650.359375 116.101562 C 650.175781 122.609375 649.992188 129.128906 649.804688 135.847656 C 660.136719 135.847656 670.082031 135.847656 680.386719 135.847656 C 680.117188 128.851562 679.867188 122.210938 679.601562 115.3125 Z M 650.359375 107.894531 C 650.449219 109.734375 650.519531 111.191406 650.585938 112.605469 C 660.273438 113.023438 676.976562 112.550781 679.304688 111.816406 C 679.304688 110.605469 679.304688 109.390625 679.304688 107.738281 C 669.519531 107.195312 660.09375 107.574219 650.359375 107.894531 Z M 726.875 107.589844 C 716.6875 107.589844 706.507812 107.589844 696.007812 107.589844 C 696.195312 117.339844 696.238281 126.875 697.695312 136.480469 C 708.222656 137.390625 718.5 136.523438 728.898438 136.414062 C 729.382812 133.535156 727.609375 109.589844 726.875 107.589844 Z M 705.441406 118.835938 C 704.328125 117.910156 702.5 117.230469 703.230469 115.257812 C 703.601562 114.253906 705.011719 114.648438 707.199219 116.359375 C 709.144531 117.878906 711.066406 119.433594 713.027344 120.992188 C 716.15625 119.105469 717.511719 115.222656 721.414062 114.046875 C 721.957031 116.539062 720.15625 117.441406 719.140625 118.703125 C 718.109375 119.984375 716.984375 121.1875 715.695312 122.65625 C 717.652344 124.179688 719.511719 125.59375 721.328125 127.058594 C 722.125 127.699219 722.882812 128.40625 723.558594 129.171875 C 723.757812 129.398438 723.792969 130.09375 723.609375 130.265625 C 723.292969 130.5625 722.65625 130.855469 722.320312 130.722656 C 721.472656 130.386719 720.683594 129.863281 719.933594 129.324219 C 717.925781 127.886719 715.953125 126.398438 713.839844 124.835938 C 712.011719 126.488281 710.308594 128.105469 708.527344 129.625 C 707.433594 130.558594 706.273438 131.449219 705.027344 132.15625 C 704.535156 132.441406 703.730469 132.183594 703.066406 132.171875 C 703.207031 131.441406 703.164062 130.59375 703.539062 130.019531 C 703.96875 129.359375 704.789062 128.964844 705.402344 128.414062 C 707.234375 126.757812 709.046875 125.078125 711.121094 123.175781 C 709.023438 121.585938 707.179688 120.277344 705.441406 118.835938 Z M 631.515625 105.726562 C 620.960938 105.726562 610.695312 105.726562 600.242188 105.726562 C 601.207031 114.984375 599.335938 123.933594 600.851562 133.261719 C 611.058594 133.515625 621.222656 133.769531 631.515625 134.023438 C 631.515625 124.285156 631.515625 114.984375 631.515625 105.726562 Z M 623.308594 121.730469 C 624.121094 121.742188 624.96875 121.792969 625.730469 122.042969 C 626.125 122.171875 626.632812 122.789062 626.609375 123.152344 C 626.574219 123.671875 626.210938 124.417969 625.785156 124.613281 C 624.964844 124.984375 624 125.207031 623.097656 125.195312 C 617.832031 125.128906 612.570312 124.980469 607.304688 124.847656 C 606.347656 124.820312 605.253906 124.683594 605.195312 123.511719 C 605.121094 122.046875 606.269531 121.65625 607.503906 121.648438 C 610.398438 121.621094 613.289062 121.640625 616.179688 121.640625 C 616.179688 121.664062 616.179688 121.691406 616.179688 121.71875 C 618.554688 121.71875 620.933594 121.695312 623.308594 121.730469 Z M 623.308594 121.730469 " fill-opacity="1" fill-rule="nonzero"/><g clip-path="url(#id2)"><path fill="#4a67af" d="M 391.113281 717.847656 C 377.476562 717.847656 363.835938 717.792969 350.199219 717.863281 C 330.574219 717.964844 310.945312 718.292969 291.316406 718.273438 C 272.722656 718.253906 254.128906 717.960938 235.539062 717.695312 C 215.085938 717.402344 194.632812 717.03125 174.183594 716.640625 C 147.121094 716.125 120.058594 715.636719 93 714.949219 C 88.078125 714.824219 83.121094 714.09375 78.28125 713.121094 C 70.578125 711.574219 65.824219 706.597656 63.648438 699.132812 C 61.617188 692.164062 60.761719 684.984375 60.0625 677.789062 C 57.832031 654.835938 58.035156 631.804688 58.09375 608.789062 C 58.175781 574.933594 58.386719 541.074219 59.007812 507.226562 C 59.464844 482.136719 59.253906 457.066406 59.164062 431.980469 C 59.050781 400.707031 59.527344 369.433594 59.898438 338.160156 C 60.25 308.847656 60.878906 279.535156 61.242188 250.222656 C 61.597656 221.21875 61.722656 192.210938 62.054688 163.207031 C 62.21875 148.757812 62.570312 134.3125 62.941406 119.867188 C 63.054688 115.535156 63.472656 111.210938 63.839844 106.894531 C 64.253906 102.078125 66.621094 98.640625 71.464844 97.539062 C 76.789062 96.328125 82.152344 95.113281 87.566406 94.496094 C 101.3125 92.929688 115.085938 91.558594 128.871094 90.363281 C 142.570312 89.179688 156.316406 89.355469 170.058594 89.582031 C 194.433594 89.988281 218.8125 90.359375 243.191406 90.746094 C 259.824219 91.007812 276.453125 91.480469 293.085938 91.480469 C 318.1875 91.480469 343.289062 91.101562 368.394531 90.964844 C 395.148438 90.824219 421.90625 90.589844 448.660156 90.769531 C 460.21875 90.847656 471.769531 91.824219 483.320312 92.464844 C 500.15625 93.402344 516.988281 92.65625 533.824219 92.445312 C 560.269531 92.113281 586.71875 91.953125 613.164062 91.75 C 633.308594 91.59375 653.457031 91.222656 673.597656 91.46875 C 684.421875 91.601562 695.230469 92.863281 706.046875 93.566406 C 711.097656 93.894531 716.15625 94.113281 721.210938 94.371094 C 725.023438 94.570312 728.847656 94.652344 732.65625 94.96875 C 742.230469 95.757812 747.894531 101.390625 748.753906 110.984375 C 749.636719 120.851562 750.699219 130.710938 751.1875 140.601562 C 751.910156 155.132812 752.542969 169.683594 752.578125 184.226562 C 752.632812 205.796875 752.160156 227.367188 751.867188 248.9375 C 751.46875 278.148438 751.085938 307.359375 750.585938 336.566406 C 750.222656 357.828125 749.429688 379.082031 749.285156 400.34375 C 749.113281 425.320312 749.480469 450.300781 749.523438 475.28125 C 749.5625 497.992188 749.40625 520.699219 749.460938 543.410156 C 749.542969 576.335938 749.804688 609.265625 749.847656 642.191406 C 749.867188 656.957031 749.4375 671.722656 747.484375 686.378906 C 746.890625 690.84375 745.804688 695.304688 744.390625 699.585938 C 742.378906 705.65625 738.054688 709.53125 731.8125 711.351562 C 725.027344 713.335938 718.0625 714.125 711.09375 714.984375 C 690.355469 717.53125 669.476562 718.015625 648.648438 719.0625 C 635.347656 719.730469 621.996094 719.277344 608.671875 719.585938 C 563.410156 720.640625 518.179688 718.691406 472.933594 718.402344 C 445.660156 718.230469 418.386719 718.371094 391.113281 718.371094 C 391.113281 718.195312 391.113281 718.023438 391.113281 717.847656 Z M 744.019531 686.550781 C 744.199219 685.097656 744.347656 684.089844 744.441406 683.074219 C 745.921875 666.917969 746.289062 650.734375 746.167969 634.515625 C 745.929688 603.035156 745.835938 571.554688 745.722656 540.074219 C 745.636719 514.992188 745.582031 489.914062 745.558594 464.832031 C 745.535156 438.203125 745.386719 411.570312 745.609375 384.945312 C 745.875 353.570312 746.476562 322.199219 746.9375 290.824219 C 747.015625 285.355469 747.085938 279.882812 747.207031 274.414062 C 748.089844 234.691406 749.332031 194.964844 747.917969 155.226562 C 747.851562 153.398438 747.691406 151.578125 747.570312 149.628906 C 746.605469 149.585938 745.902344 149.523438 745.195312 149.523438 C 737.035156 149.53125 728.871094 149.6875 720.710938 149.542969 C 698.921875 149.15625 677.128906 148.742188 655.34375 148.148438 C 640.167969 147.738281 625.003906 146.746094 609.824219 146.496094 C 591.855469 146.199219 573.875 146.386719 555.902344 146.425781 C 506.417969 146.53125 456.933594 146.691406 407.449219 146.78125 C 392.164062 146.808594 376.875 146.691406 361.585938 146.621094 C 349.191406 146.566406 336.792969 146.539062 324.398438 146.394531 C 298.574219 146.089844 272.753906 145.632812 246.929688 145.417969 C 235.464844 145.324219 224 145.65625 212.53125 145.796875 C 207.367188 145.859375 202.203125 145.847656 197.039062 145.992188 C 180.621094 146.453125 164.210938 147.105469 147.789062 147.429688 C 133.640625 147.710938 119.488281 147.660156 105.332031 147.734375 C 92.835938 147.804688 80.339844 147.84375 67.84375 147.910156 C 67.464844 147.910156 67.089844 148.097656 66.578125 148.230469 C 66.515625 149.445312 66.417969 150.5625 66.402344 151.679688 C 66.171875 168.5 65.90625 185.324219 65.730469 202.148438 C 65.390625 235.175781 65.453125 268.210938 64.703125 301.226562 C 63.800781 340.855469 62.824219 380.476562 62.972656 420.117188 C 63.09375 450.976562 63.589844 481.832031 62.761719 512.695312 C 61.609375 555.519531 61.648438 598.359375 62.148438 641.195312 C 62.328125 656.574219 62.847656 671.945312 64.992188 687.210938 C 65.144531 688.285156 65.460938 689.332031 65.707031 690.4375 C 67.058594 690.4375 68.082031 690.425781 69.105469 690.441406 C 77.160156 690.539062 85.214844 690.582031 93.269531 690.765625 C 99.773438 690.914062 106.273438 691.265625 112.777344 691.484375 C 134.042969 692.207031 155.316406 692.816406 176.578125 693.644531 C 200.648438 694.582031 224.710938 694.339844 248.777344 693.753906 C 266.640625 693.316406 284.503906 692.632812 302.371094 692.566406 C 336.773438 692.4375 371.175781 692.714844 405.574219 692.722656 C 417.765625 692.726562 429.953125 692.386719 442.140625 692.289062 C 460.324219 692.144531 478.507812 691.824219 496.683594 692.027344 C 519.507812 692.285156 542.332031 692.933594 565.152344 693.519531 C 603.09375 694.496094 640.957031 692.5625 678.816406 690.527344 C 692.015625 689.816406 705.21875 689.109375 718.417969 688.316406 C 726.863281 687.8125 735.296875 687.15625 744.019531 686.550781 Z M 747.199219 145.699219 C 747.28125 145.136719 747.351562 144.925781 747.335938 144.726562 C 746.347656 133.421875 745.402344 122.109375 744.304688 110.8125 C 744.128906 109.011719 743.453125 107.183594 742.667969 105.53125 C 740.964844 101.949219 738.152344 99.679688 734.09375 99.230469 C 731.9375 98.992188 729.78125 98.753906 727.617188 98.640625 C 721.121094 98.296875 714.585938 98.320312 708.125 97.648438 C 690.429688 95.796875 672.699219 94.960938 654.917969 95.121094 C 619.898438 95.4375 584.875 95.746094 549.855469 96.152344 C 538.082031 96.285156 526.300781 96.46875 514.542969 97.0625 C 503.78125 97.609375 493.046875 97.519531 482.347656 96.605469 C 466.796875 95.273438 451.234375 94.136719 435.632812 94.207031 C 414.457031 94.296875 393.28125 94.773438 372.105469 95.03125 C 349.070312 95.3125 326.03125 95.835938 302.996094 95.703125 C 268.703125 95.503906 234.40625 94.828125 200.113281 94.347656 C 194.949219 94.273438 189.785156 94.171875 184.621094 94.046875 C 167.890625 93.644531 151.152344 92.886719 134.441406 94.195312 C 119.515625 95.359375 104.605469 96.738281 89.707031 98.242188 C 84.277344 98.789062 78.878906 99.800781 73.53125 100.929688 C 69.183594 101.851562 68.382812 103.011719 67.847656 107.457031 C 66.402344 119.378906 66.722656 131.359375 66.683594 143.324219 C 66.683594 143.609375 66.859375 143.890625 67.054688 144.488281 C 68 144.488281 69.003906 144.5 70.007812 144.488281 C 79.71875 144.363281 89.429688 144.226562 99.136719 144.109375 C 123 143.816406 146.871094 143.863281 170.71875 143.167969 C 207.488281 142.101562 244.253906 141.761719 281.035156 142.164062 C 324.417969 142.636719 367.808594 142.988281 411.195312 143.054688 C 458.71875 143.125 506.242188 142.765625 553.761719 142.683594 C 576.488281 142.644531 599.222656 142.5625 621.941406 142.964844 C 638.980469 143.265625 655.996094 144.578125 673.035156 144.957031 C 696.890625 145.488281 720.757812 145.566406 744.617188 145.832031 C 745.421875 145.839844 746.230469 145.75 747.199219 145.699219 Z M 743.128906 690.335938 C 742.433594 690.335938 741.734375 690.292969 741.039062 690.339844 C 726.925781 691.351562 712.824219 692.472656 698.707031 693.363281 C 686.027344 694.164062 673.328125 694.644531 660.644531 695.394531 C 638.671875 696.6875 616.683594 697.714844 594.679688 697.613281 C 570.820312 697.503906 546.960938 696.875 523.105469 696.3125 C 497.691406 695.707031 472.28125 695.699219 446.867188 696.183594 C 430.546875 696.492188 414.222656 696.746094 397.898438 696.707031 C 343.867188 696.582031 289.839844 695.855469 235.820312 697.929688 C 220.246094 698.523438 204.621094 698.242188 189.027344 697.886719 C 166.308594 697.371094 143.597656 696.433594 120.882812 695.660156 C 113.863281 695.417969 106.847656 695.0625 99.824219 694.886719 C 89.5 694.632812 79.171875 694.488281 68.84375 694.324219 C 68.074219 694.3125 67.300781 694.527344 66.363281 694.660156 C 66.664062 695.914062 66.855469 696.921875 67.148438 697.898438 C 68.964844 704.035156 72.773438 708.140625 79.183594 709.5 C 81.503906 709.988281 83.84375 710.5625 86.199219 710.683594 C 94.34375 711.109375 102.5 711.480469 110.65625 711.632812 C 137.511719 712.136719 164.367188 712.480469 191.222656 713 C 210.539062 713.371094 229.847656 714.207031 249.164062 714.332031 C 273.542969 714.488281 297.921875 714.058594 322.300781 714.019531 C 338.832031 713.992188 355.359375 714.289062 371.890625 714.289062 C 423.546875 714.28125 475.203125 714.371094 526.855469 715.296875 C 550.921875 715.730469 574.980469 716.597656 599.0625 715.867188 C 620.429688 715.222656 641.824219 715.894531 663.191406 714.5 C 679.164062 713.460938 695.191406 713.15625 711.09375 711.179688 C 717.433594 710.394531 723.8125 709.554688 730.019531 708.089844 C 738.246094 706.148438 743.105469 699.230469 743.128906 690.335938 Z M 664.628906 139.644531 C 659.984375 139.644531 655.339844 139.699219 650.699219 139.628906 C 647.164062 139.574219 646.5 138.90625 646.539062 135.4375 C 646.644531 126.46875 646.785156 117.5 646.976562 108.535156 C 647.050781 105.195312 647.863281 104.210938 651.226562 104.140625 C 660.300781 103.945312 669.378906 103.851562 678.457031 103.925781 C 682.175781 103.953125 682.886719 104.972656 682.976562 108.640625 C 683.167969 116.371094 683.394531 124.097656 683.59375 131.828125 C 683.632812 133.269531 683.679688 134.71875 683.621094 136.160156 C 683.53125 138.359375 682.898438 139.097656 680.71875 139.425781 C 679.5 139.609375 678.25 139.621094 677.011719 139.628906 C 672.886719 139.652344 668.757812 139.636719 664.628906 139.636719 C 664.628906 139.640625 664.628906 139.644531 664.628906 139.644531 Z M 680.386719 135.847656 C 680.117188 128.851562 679.867188 122.210938 679.601562 115.3125 C 669.722656 115.582031 660.1875 115.839844 650.359375 116.101562 C 650.175781 122.609375 649.992188 129.128906 649.804688 135.847656 C 660.136719 135.847656 670.082031 135.847656 680.386719 135.847656 Z M 679.304688 107.738281 C 669.519531 107.195312 660.09375 107.574219 650.359375 107.894531 C 650.449219 109.734375 650.519531 111.191406 650.585938 112.605469 C 660.273438 113.023438 676.976562 112.550781 679.304688 111.816406 C 679.304688 110.605469 679.304688 109.390625 679.304688 107.738281 Z M 711.574219 103.550781 C 716.425781 103.550781 721.273438 103.511719 726.121094 103.5625 C 729.855469 103.605469 730.5625 104.378906 730.84375 108.082031 C 731.4375 115.890625 732.089844 123.691406 732.6875 131.5 C 732.796875 132.9375 732.820312 134.386719 732.769531 135.828125 C 732.664062 138.953125 731.820312 139.898438 728.726562 140.117188 C 725.335938 140.355469 721.929688 140.515625 718.527344 140.558594 C 712.234375 140.636719 705.945312 140.613281 699.652344 140.621094 C 699.035156 140.621094 698.414062 140.554688 697.800781 140.46875 C 695.171875 140.117188 694.523438 139.6875 694.191406 137.085938 C 693.5625 132.1875 693.027344 127.265625 692.691406 122.339844 C 692.375 117.714844 692.289062 113.070312 692.238281 108.433594 C 692.195312 104.144531 692.585938 103.714844 697.03125 103.597656 C 701.875 103.464844 706.726562 103.566406 711.574219 103.566406 C 711.574219 103.5625 711.574219 103.554688 711.574219 103.550781 Z M 728.898438 136.414062 C 729.382812 133.535156 727.609375 109.589844 726.875 107.589844 C 716.6875 107.589844 706.507812 107.589844 696.007812 107.589844 C 696.195312 117.339844 696.238281 126.875 697.695312 136.480469 C 708.222656 137.390625 718.5 136.523438 728.898438 136.414062 Z M 616.117188 101.605469 C 620.242188 101.605469 624.363281 101.601562 628.488281 101.609375 C 629.519531 101.613281 630.554688 101.617188 631.578125 101.714844 C 634.28125 101.972656 634.953125 102.707031 634.964844 105.441406 C 634.984375 109.667969 634.953125 113.890625 634.964844 118.113281 C 634.976562 122.644531 635.019531 127.179688 635.039062 131.710938 C 635.042969 132.636719 635.066406 133.570312 634.96875 134.488281 C 634.726562 136.789062 634.382812 137.195312 632.101562 137.246094 C 626.640625 137.371094 621.175781 137.527344 615.71875 137.414062 C 610.777344 137.308594 605.84375 136.871094 600.910156 136.570312 C 598.324219 136.410156 597.667969 135.816406 597.578125 133.175781 C 597.425781 128.542969 597.398438 123.910156 597.285156 119.277344 C 597.1875 115.164062 597.011719 111.058594 596.929688 106.945312 C 596.847656 102.609375 597.328125 102.074219 601.582031 102.019531 C 606.425781 101.957031 611.273438 102.007812 616.117188 102.007812 C 616.117188 101.875 616.117188 101.738281 616.117188 101.605469 Z M 631.515625 134.023438 C 631.515625 124.285156 631.515625 114.984375 631.515625 105.726562 C 620.960938 105.726562 610.695312 105.726562 600.242188 105.726562 C 601.207031 114.984375 599.335938 123.933594 600.851562 133.261719 C 611.058594 133.515625 621.222656 133.769531 631.515625 134.023438 Z M 705.402344 128.414062 C 704.789062 128.964844 703.96875 129.359375 703.539062 130.019531 C 703.164062 130.59375 703.207031 131.441406 703.066406 132.171875 C 703.730469 132.183594 704.535156 132.441406 705.027344 132.15625 C 706.273438 131.449219 707.433594 130.558594 708.527344 129.625 C 710.308594 128.105469 712.011719 126.488281 713.839844 124.835938 C 715.953125 126.398438 717.925781 127.886719 719.933594 129.324219 C 720.683594 129.863281 721.472656 130.386719 722.320312 130.722656 C 722.65625 130.855469 723.292969 130.5625 723.609375 130.265625 C 723.792969 130.09375 723.757812 129.398438 723.558594 129.171875 C 722.882812 128.40625 722.125 127.699219 721.328125 127.058594 C 719.511719 125.59375 717.652344 124.179688 715.695312 122.65625 C 716.984375 121.1875 718.109375 119.984375 719.140625 118.703125 C 720.15625 117.441406 721.957031 116.539062 721.414062 114.046875 C 717.511719 115.222656 716.15625 119.105469 713.027344 120.992188 C 711.066406 119.433594 709.144531 117.878906 707.199219 116.359375 C 705.011719 114.648438 703.601562 114.253906 703.230469 115.257812 C 702.5 117.230469 704.328125 117.910156 705.441406 118.835938 C 707.179688 120.277344 709.023438 121.585938 711.121094 123.175781 C 709.046875 125.078125 707.234375 126.757812 705.402344 128.414062 Z M 616.179688 121.640625 C 613.289062 121.640625 610.398438 121.621094 607.503906 121.648438 C 606.269531 121.65625 605.121094 122.046875 605.195312 123.511719 C 605.253906 124.683594 606.347656 124.820312 607.304688 124.847656 C 612.570312 124.980469 617.832031 125.128906 623.097656 125.195312 C 624 125.207031 624.964844 124.984375 625.785156 124.613281 C 626.210938 124.417969 626.574219 123.671875 626.609375 123.152344 C 626.632812 122.789062 626.125 122.171875 625.730469 122.042969 C 624.96875 121.792969 624.121094 121.742188 623.308594 121.730469 C 620.933594 121.695312 618.554688 121.71875 616.179688 121.71875 C 616.179688 121.691406 616.179688 121.664062 616.179688 121.640625 Z M 616.179688 121.640625 " fill-opacity="1" fill-rule="nonzero"/></g></svg>