<svg xmlns="http://www.w3.org/2000/svg" xmlns:xlink="http://www.w3.org/1999/xlink" width="1080" zoomAndPan="magnify" viewBox="0 0 810 809.999993" height="1080" preserveAspectRatio="xMidYMid meet" version="1.0"><defs><clipPath id="id1"><path d="M 274 132 L 556 132 L 556 691 L 274 691 Z M 274 132 " clip-rule="nonzero"/></clipPath><clipPath id="id2"><path d="M 376.414062 93.011719 L 579.839844 145.144531 L 433.316406 716.917969 L 229.890625 664.785156 Z M 376.414062 93.011719 " clip-rule="nonzero"/></clipPath><clipPath id="id3"><path d="M 376.414062 93.011719 L 579.839844 145.144531 L 433.316406 716.917969 L 229.890625 664.785156 Z M 376.414062 93.011719 " clip-rule="nonzero"/></clipPath></defs><g clip-path="url(#id1)"><g clip-path="url(#id2)"><g clip-path="url(#id3)"><path fill="#4a67af" d="M 398.011719 391.691406 C 389.675781 422 393.476562 451.355469 403.4375 480.292969 C 404.785156 484.203125 407.285156 488.625 410.566406 490.820312 C 421.601562 498.070312 433.308594 504.347656 444.492188 511.28125 C 447.011719 512.851562 450.371094 515.851562 450.257812 517.964844 C 449.039062 523 446.488281 526.835938 425.574219 528.964844 C 394.847656 535.210938 377.519531 555.871094 369.894531 584.507812 C 361.824219 614.886719 356.410156 646.015625 349.542969 676.699219 C 348.21875 682.707031 349.542969 690.605469 340.542969 690.152344 C 334.382812 690.570312 335.238281 682.234375 334.96875 676.601562 C 334.152344 657.566406 333.132812 638.480469 334.066406 619.539062 C 335.453125 590.230469 328.058594 563.234375 316.320312 537.050781 C 309.984375 522.875 282.875 509.441406 282.207031 509.269531 C 270.375 506.808594 273.992188 495.183594 283.644531 493.09375 C 284.097656 492.996094 298.304688 487.863281 304.996094 485.371094 C 336.425781 473.886719 354.550781 449.296875 368.046875 420.238281 C 374.679688 406.035156 381.011719 391.613281 387.839844 377.460938 C 388.300781 376.511719 388.824219 375.574219 389.464844 374.742188 C 391.679688 371.386719 404.097656 368.222656 398.011719 391.691406 Z M 413.96875 508.949219 C 388.882812 493.179688 384.703125 468.078125 382.238281 442.128906 C 381.636719 436.128906 373.734375 434.460938 370.824219 439.703125 C 355.914062 466.761719 334.753906 486.796875 304.152344 497.277344 C 299.457031 498.929688 298.496094 505.171875 302.527344 508.058594 C 303.613281 508.835938 304.5625 509.578125 305.542969 510.472656 C 312.382812 516.574219 320.714844 522.132812 324.867188 529.828125 C 331.515625 542.226562 336.390625 555.457031 339.347656 569.191406 C 341.023438 577.109375 342.195312 585.039062 343.203125 592.785156 C 344.015625 599.339844 353.148438 600.113281 355.109375 593.839844 C 357.296875 586.699219 359.734375 579.410156 362.375 572.167969 C 371.359375 547.660156 386.039062 527.890625 412.496094 519.980469 C 412.496094 519.980469 412.578125 519.929688 412.578125 519.929688 C 417.660156 518.453125 418.453125 511.738281 413.96875 508.949219 Z M 525.660156 147.296875 C 525.019531 164.25 522.992188 181.339844 524.175781 198.117188 C 525.382812 213.972656 537.160156 222.765625 551.433594 228.207031 C 551.433594 228.207031 551.5 228.222656 551.5 228.222656 C 556.273438 230.160156 556.296875 237.011719 551.566406 239.078125 C 550.84375 239.394531 545.371094 239.632812 543.378906 239.621094 C 519.601562 239.585938 512.21875 245.324219 507.457031 268.921875 C 504.882812 281.738281 503.683594 294.765625 500.976562 307.550781 C 500.046875 311.730469 496.273438 315.328125 493.859375 319.203125 C 491.707031 315.371094 487.628906 311.546875 487.621094 307.691406 C 487.707031 294.023438 489.429688 280.347656 490.015625 266.664062 C 491.09375 243.835938 485.070312 235.660156 463.277344 228.433594 C 454.089844 225.9375 449.574219 217.71875 462.296875 216.988281 C 489.980469 213.171875 499.632812 191.613281 508.574219 169.515625 C 512.464844 159.890625 513.371094 153.847656 517.082031 144.101562 C 518.289062 141.058594 522.0625 131.328125 525.269531 132.152344 C 528.011719 132.855469 525.660156 147.296875 525.660156 147.296875 Z M 511.816406 188.816406 C 499.695312 211.667969 481.527344 221.417969 481.527344 221.417969 C 488.070312 224.519531 501.886719 254.800781 501.886719 254.800781 C 506.429688 245.410156 514.476562 229.289062 528.457031 228.378906 C 516.949219 216.589844 510.800781 204.457031 511.816406 188.816406 Z M 511.816406 188.816406 " fill-opacity="1" fill-rule="nonzero"/></g></g></g></svg>